<svg width="452" height="621" viewBox="0 0 452 621" fill="none" xmlns="http://www.w3.org/2000/svg">
<g filter="url(#filter0_d_23_2)">
<path d="M371.997 530.163C376.589 553.449 380.743 598.901 382.247 618.716H119.459C119.049 614.616 119.459 608.057 123.148 600.267C119.459 552.711 123.968 547.382 132.578 522.374C132.578 495.48 142.143 467.712 146.926 457.19C155.536 452.407 266.754 362.999 285.776 366.279C309.554 370.379 367.898 488.347 371.997 494.906C376.097 501.466 371.587 505.156 371.997 530.163Z" fill="#205950"/>
<path d="M252.431 440.33C269.649 446.479 314.745 434.18 316.385 434.18C326.88 429.261 331.144 432.13 331.964 434.18C334.287 436.23 339.999 442.134 344.263 449.349L344.303 449.417C349.69 458.533 369.219 491.582 348.772 494.445C322.125 494.855 301.626 487.476 281.948 483.786C260.22 480.916 218.403 466.977 211.024 462.878C206.104 462.222 200.367 453.329 201.324 451.142C205.697 448.682 221.191 447.709 222.503 446.069C224.143 444.019 235.212 434.18 252.431 440.33Z" fill="#BF835F"/>
<path d="M205.201 467.951C214.712 466.311 219.55 455.515 220.78 450.322C209.027 451.962 184.323 453.72 183.339 458.967C182.109 463.887 186.742 466.08 193.711 480.838C199.861 480.018 201.921 477.38 205.201 467.951Z" fill="#8C512F"/>
<path d="M339.414 212.932C334.167 210.636 327.389 200.769 324.656 196.123C306.481 192.023 264.637 185.546 242.663 192.433C239.383 195.03 232.085 200.633 229.134 202.273C218.885 204.732 147.141 226.46 134.022 262.537C126.642 284.675 115.163 319.523 109.834 365.849C109.057 372.611 99.1262 417.072 100.062 440.31C102.112 445.639 97.6026 468.597 148.028 459.988C161.147 438.67 113.114 451.531 120.493 438.412C130.742 429.393 152.47 403.155 159.85 395.366C168.459 391.676 175.838 392.496 181.578 395.366C188.137 395.366 183.628 431.443 185.677 431.443C187.727 431.443 241.843 429.393 245.122 427.343C248.402 425.293 290.218 422.834 293.498 420.784C296.122 419.144 332.581 418.734 350.483 418.734C346.794 419.827 337.283 422.67 328.755 425.293C321.376 428.163 320.966 428.573 328.755 442.102C339.824 459.321 348.024 479.819 352.533 488.838C357.043 497.857 358.683 492.938 379.591 493.348C400.41 493.756 401.718 490.912 411.039 470.649L411.158 470.39C429.197 420.784 425.304 313.783 418.744 262.537C414.127 226.463 349.254 216.621 339.414 212.932Z" fill="#01261F"/>
<path d="M351.845 418.926C360.422 421.156 379.84 428.806 388.897 441.569" stroke="#1B2E40" stroke-width="3.08764" stroke-linecap="round" stroke-linejoin="round"/>
<path d="M385.295 286.671C373.974 289.759 350.611 299.125 347.729 311.887C349.959 309.486 357.507 305.403 369.857 308.285M166.588 283.584C174.307 286.5 191.186 294.699 196.949 304.168M190.26 372.096C178.424 366.95 150.635 363.142 134.167 389.078" stroke="#1B2E40" stroke-width="3.08764" stroke-linecap="round" stroke-linejoin="round"/>
<path d="M350.142 343.74V395.396C279.628 420.813 186.156 403.185 186.566 397.445C186.976 391.706 191.076 356.039 193.125 338.001C193.535 324.882 198.455 305.203 204.604 287.575C205.168 285.364 227.044 205.029 227.627 202.862C233.322 199.874 237.361 196.855 241.682 193.063C239.222 215.611 222.042 289.207 221.823 292.495C224.283 294.134 235.352 297.004 251.341 299.464C269.379 301.924 305.456 297.824 328.004 297.004C328.596 291.561 326.299 205.422 326.18 198.604L326.323 198.804C328.537 201.904 335.272 211.34 338.479 212.542C338.811 216.487 345.99 288.752 346.042 292.495C346.452 317.502 347.272 324.472 350.142 343.74Z" fill="#205950"/>
<path d="M153.85 396.383C164.099 386.544 180.907 390.644 182.137 391.464C213.704 393.514 224.773 392.956 229.283 391.697C246.911 386.778 282.988 379.808 304.716 378.988C327.674 383.088 323.985 396.383 319.885 416.062C315.785 435.74 301.027 418.931 284.218 423.441C267.41 427.951 259.62 433.69 230.103 445.579C196.076 467.307 131.711 461.978 121.052 461.978C113.673 461.158 112.443 447.219 117.363 438.61C123.512 435.33 126.382 430 131.711 421.801C137.041 413.602 143.6 406.222 153.85 396.383Z" fill="#BF835F"/>
<path d="M344.641 501.166C318.722 497.745 195.606 503.173 156.295 526.993M257.673 365.407C256.644 366.951 230.913 393.196 202.61 380.331M355.448 576.396C342.068 568.162 305.428 550.974 265.907 548.092" stroke="#3B786E" stroke-width="3.08764" stroke-linecap="round" stroke-linejoin="round"/>
<path d="M291.927 364.229C288.647 367.509 281.678 379.398 280.038 381.448C287.644 380.628 295.616 379.398 301.766 379.398C301.766 388.007 303.816 394.567 300.536 399.896C291.927 408.916 289.467 412.195 287.827 421.215C283.317 424.494 280.038 424.084 272.658 426.954C276.348 431.054 284.547 428.594 291.927 426.954C301.356 427.364 318.984 435.153 323.084 431.874C323.084 424.084 345.222 422.035 350.142 418.755C355.86 414.943 352.192 396.617 350.142 387.597C336.613 382.268 331.693 378.988 321.444 377.348C315.295 371.609 298.896 365.049 291.927 364.229Z" fill="#8C512F"/>
<path d="M320.808 239.122C328.351 223.051 322.447 198.977 320.808 189.411C320.279 185.721 324.491 179.398 329.001 172.429C333.51 165.46 336.205 160.078 337.749 138.98C339.251 118.446 351.965 120.232 341.716 91.5347C331.467 62.8371 320.808 66.1168 290.88 53.8179C260.953 41.5189 264.232 63.6571 246.604 73.9062C228.975 84.1553 235.945 114.493 224.466 137.451C212.987 158.359 249.791 163.141 248.342 180.026C247.112 188.635 242.914 198.126 242.504 210.834C242.504 223.133 255.213 239.122 266.692 263.31C268.742 276.019 276.531 278.889 282.681 277.249C294.57 275.609 310.558 256.341 320.808 239.122Z" fill="#BF835F"/>
<path d="M241.361 158.621C244.313 160.917 248.53 174.293 248.53 179.018C242.79 191.317 219.854 159.929 218.36 155.147C212.21 135.469 213.197 97.7523 229.428 68.2348C238.445 51.8362 247.877 48.5565 259.356 48.5565C286.414 46.0967 285.542 41.4947 295.843 38.7174C318.391 28.0582 340.484 34.0797 347.908 71.1044C357.748 75.2041 369.255 76.0015 353.221 111.281C363.88 130.139 355.515 150.012 346.496 158.621C340.346 163.131 340.801 177.994 332.601 179.634C317.433 195.212 319.248 188.871 320.251 182.721C323.94 176.162 328.913 167.014 331.373 160.044C338.342 153.075 336.702 141.596 333.013 139.136C329.323 136.676 334.452 132.577 329.942 122.738C327.29 109.776 325.32 98.9529 320.251 91.6359C308.415 70.5371 293.017 72.7291 285.227 72.9381C272.108 68.8384 261.449 78.2676 257.759 90.9766C257.349 107.375 251.2 103.685 246.281 107.785C241.361 111.885 242.955 124.81 238.445 135.469C228.606 143.668 237.261 153.701 241.361 158.621Z" fill="black"/>
<path d="M246.353 438.48C240.521 441.396 227.21 447.846 220.623 450.316" stroke="#CC9A7B" stroke-width="3.08764" stroke-linecap="round" stroke-linejoin="round"/>
<ellipse cx="306.227" cy="142.076" rx="3.30845" ry="6.61691" fill="#1B2E40"/>
<ellipse cx="268.731" cy="140.973" rx="3.30845" ry="7.71973" fill="#1B2E40"/>
<circle cx="267.628" cy="140.973" r="13.2338" stroke="black" stroke-width="2.20564"/>
<circle cx="305.124" cy="140.973" r="13.2338" stroke="black" stroke-width="2.20564"/>
<path d="M291.89 140.973C289.684 136.562 285.273 134.356 280.862 140.973" stroke="black" stroke-width="2.20564"/>
<path d="M254.394 139.87C251.821 139.503 245.131 137.665 238.955 133.253M318.358 139.87C322.034 138.768 330.048 138.988 332.694 135.459" stroke="black" stroke-width="2.20564"/>
<path d="M285.273 142.076C287.111 143.914 301.816 168.544 283.068 164.132" stroke="#1B2E40" stroke-width="2.20564"/>
<path d="M307.33 172.955C299.242 178.102 278.656 186.189 264.32 172.955M268.731 168.544C267.261 170.014 263.658 173.837 261.011 177.366" stroke="#1B2E40" stroke-width="2.20564"/>
</g>
<g filter="url(#filter1_d_23_2)">
<path d="M6 85C6 49.6538 34.6538 21 70 21H134V85C134 120.346 105.346 149 70 149V149C34.6538 149 6 120.346 6 85V85Z" fill="#D9D9D9"/>
<path d="M57.0088 43.9886C60.9644 38.7144 67.1177 44.8676 67.2056 45.483C68.4362 44.0179 71.8996 41.0702 75.908 40.9999C81.2701 40.6483 80.3032 34.4071 83.7314 34.3192C87.5991 34.2313 96.6531 38.3628 90.5878 48.0321C84.7862 57.7015 91.6427 51.1967 94.2798 52.1636C96.9169 53.1305 99.6419 63.7668 89.533 67.195C80.8306 70.6233 90.5878 73.5241 96.6531 73.8757C103.598 75.7217 85.5773 82.666 83.7314 87.3249C82.114 90.9817 83.1747 94.4157 83.9072 95.6757L69.0516 96.0273C68.7 89.6104 60.2614 91.4563 57.1848 85.1273C54.3719 76.0733 66.4146 68.6894 57.5364 71.5902C45.6695 77.4797 46.9 66.316 48.3064 62.4483C50.7677 57.8773 57.9757 59.02 52.5257 53.9217C47.0757 48.8233 54.4596 47.3289 57.0088 43.9886Z" fill="#205950"/>
<path d="M82.4472 48.0488C80.8453 52.6257 76.5429 61.9169 72.1491 62.4662M82.4472 75.5105C80.6164 76.6547 76.2683 80.5909 73.5221 87.1817M64.5971 58.3469C62.7663 59.2623 58.9674 61.7796 58.4182 64.5258" stroke="#1B2E40" stroke-width="1.37308" stroke-linecap="round" stroke-linejoin="round"/>
<path d="M93.6062 107.114C93.6062 105.028 94.1353 93.2045 93.6062 92.8568C85.4385 92.0743 53.8135 92.7698 53.4621 93.4653C53.1107 94.1608 54.5144 120.241 54.6901 124.327C54.8647 128.388 56.6013 128.928 59.6412 129.874L59.6973 129.891C67.2366 131.366 77.138 130.763 82.8536 130.415L82.8889 130.413C89.8288 130.326 92.3643 127.631 92.7298 126.501C93.4325 124.327 93.6062 109.201 93.6062 107.114Z" fill="white"/>
</g>
<defs>
<filter id="filter0_d_23_2" x="91" y="0" width="360.228" height="620.716" filterUnits="userSpaceOnUse" color-interpolation-filters="sRGB">
<feFlood flood-opacity="0" result="BackgroundImageFix"/>
<feColorMatrix in="SourceAlpha" type="matrix" values="0 0 0 0 0 0 0 0 0 0 0 0 0 0 0 0 0 0 127 0" result="hardAlpha"/>
<feOffset dx="9" dy="-16"/>
<feGaussianBlur stdDeviation="9"/>
<feComposite in2="hardAlpha" operator="out"/>
<feColorMatrix type="matrix" values="0 0 0 0 0 0 0 0 0 0 0 0 0 0 0 0 0 0 0.1 0"/>
<feBlend mode="normal" in2="BackgroundImageFix" result="effect1_dropShadow_23_2"/>
<feBlend mode="normal" in="SourceGraphic" in2="effect1_dropShadow_23_2" result="shape"/>
</filter>
<filter id="filter1_d_23_2" x="0" y="21" width="140" height="143" filterUnits="userSpaceOnUse" color-interpolation-filters="sRGB">
<feFlood flood-opacity="0" result="BackgroundImageFix"/>
<feColorMatrix in="SourceAlpha" type="matrix" values="0 0 0 0 0 0 0 0 0 0 0 0 0 0 0 0 0 0 127 0" result="hardAlpha"/>
<feOffset dy="9"/>
<feGaussianBlur stdDeviation="3"/>
<feComposite in2="hardAlpha" operator="out"/>
<feColorMatrix type="matrix" values="0 0 0 0 0 0 0 0 0 0 0 0 0 0 0 0 0 0 0.15 0"/>
<feBlend mode="normal" in2="BackgroundImageFix" result="effect1_dropShadow_23_2"/>
<feBlend mode="normal" in="SourceGraphic" in2="effect1_dropShadow_23_2" result="shape"/>
</filter>
</defs>
</svg>
