<svg width="170" height="32" viewBox="0 0 170 32" fill="none" xmlns="http://www.w3.org/2000/svg">
<path d="M0.528409 31V1.90909H12.0057C14.2121 1.90909 16.0919 2.33049 17.6449 3.1733C19.1979 4.00663 20.3816 5.16667 21.196 6.65341C22.0199 8.13068 22.4318 9.83523 22.4318 11.767C22.4318 13.6989 22.0152 15.4034 21.1818 16.8807C20.3485 18.358 19.1411 19.5085 17.5597 20.3324C15.9877 21.1562 14.0843 21.5682 11.8494 21.5682H4.53409V16.6392H10.8551C12.0388 16.6392 13.0142 16.4356 13.7812 16.0284C14.5578 15.6117 15.1354 15.0388 15.5142 14.3097C15.9025 13.571 16.0966 12.7235 16.0966 11.767C16.0966 10.8011 15.9025 9.95833 15.5142 9.23864C15.1354 8.50947 14.5578 7.94602 13.7812 7.5483C13.0047 7.1411 12.0199 6.9375 10.8267 6.9375H6.67898V31H0.528409ZM32.3643 1.90909V31H26.3132V1.90909H32.3643ZM43.4332 31.4119C42.0412 31.4119 40.8007 31.1705 39.7116 30.6875C38.6226 30.1951 37.7609 29.4706 37.1264 28.5142C36.5014 27.5483 36.1889 26.3456 36.1889 24.9062C36.1889 23.6941 36.4115 22.6761 36.8565 21.8523C37.3016 21.0284 37.9077 20.3655 38.6747 19.8636C39.4418 19.3617 40.313 18.983 41.2884 18.7273C42.2732 18.4716 43.3054 18.2917 44.3849 18.1875C45.6539 18.0549 46.6766 17.9318 47.4531 17.8182C48.2296 17.6951 48.7931 17.5152 49.1435 17.2784C49.4938 17.0417 49.669 16.6913 49.669 16.2273V16.142C49.669 15.2424 49.3849 14.5464 48.8168 14.054C48.258 13.5616 47.4626 13.3153 46.4304 13.3153C45.3414 13.3153 44.4749 13.5568 43.831 14.0398C43.187 14.5133 42.7609 15.1098 42.5526 15.8295L36.956 15.375C37.2401 14.0492 37.7988 12.9034 38.6321 11.9375C39.4654 10.9621 40.5402 10.214 41.8565 9.69318C43.1823 9.16288 44.7164 8.89773 46.4588 8.89773C47.6709 8.89773 48.831 9.03977 49.9389 9.32386C51.0563 9.60795 52.0459 10.0483 52.9077 10.6449C53.7789 11.2415 54.4654 12.0085 54.9673 12.946C55.4692 13.8741 55.7202 14.9867 55.7202 16.2841V31H49.9815V27.9744H49.8111C49.4607 28.6562 48.992 29.2576 48.4048 29.7784C47.8177 30.2898 47.1122 30.6922 46.2884 30.9858C45.4645 31.2699 44.5128 31.4119 43.4332 31.4119ZM45.1662 27.2358C46.0563 27.2358 46.8423 27.0606 47.5241 26.7102C48.206 26.3504 48.741 25.8674 49.1293 25.2614C49.5175 24.6553 49.7116 23.9687 49.7116 23.2017V20.8864C49.5223 21.0095 49.2618 21.1231 48.9304 21.2273C48.6084 21.322 48.2438 21.4119 47.8366 21.4972C47.4295 21.5729 47.0223 21.6439 46.6151 21.7102C46.2079 21.767 45.8385 21.8191 45.5071 21.8665C44.7969 21.9706 44.1766 22.1364 43.6463 22.3636C43.116 22.5909 42.7041 22.8987 42.4105 23.2869C42.117 23.6657 41.9702 24.1392 41.9702 24.7074C41.9702 25.5312 42.2685 26.161 42.8651 26.5966C43.4711 27.0227 44.2382 27.2358 45.1662 27.2358ZM66.4659 18.3864V31H60.4148V9.18182H66.1818V13.0312H66.4375C66.9205 11.7623 67.7301 10.7585 68.8665 10.0199C70.0028 9.27178 71.3807 8.89773 73 8.89773C74.5152 8.89773 75.8362 9.22917 76.9631 9.89205C78.09 10.5549 78.9659 11.5019 79.5909 12.733C80.2159 13.9545 80.5284 15.4129 80.5284 17.108V31H74.4773V18.1875C74.4867 16.8523 74.1458 15.8106 73.4545 15.0625C72.7633 14.3049 71.8116 13.9261 70.5994 13.9261C69.785 13.9261 69.0653 14.1013 68.4403 14.4517C67.8248 14.8021 67.3419 15.3134 66.9915 15.9858C66.6506 16.6487 66.4754 17.4489 66.4659 18.3864ZM96.9027 9.18182V13.7273H83.7635V9.18182H96.9027ZM86.7464 3.95455H92.7976V24.2955C92.7976 24.8542 92.8828 25.2898 93.0533 25.6023C93.2237 25.9053 93.4605 26.1184 93.7635 26.2415C94.076 26.3646 94.4358 26.4261 94.843 26.4261C95.1271 26.4261 95.4112 26.4025 95.6953 26.3551C95.9794 26.2983 96.1972 26.2557 96.3487 26.2273L97.3004 30.7301C96.9974 30.8248 96.5713 30.9337 96.022 31.0568C95.4728 31.1894 94.8052 31.2699 94.0192 31.2983C92.5608 31.3551 91.2824 31.161 90.1839 30.7159C89.0949 30.2708 88.2474 29.5795 87.6413 28.642C87.0353 27.7045 86.737 26.5208 86.7464 25.0909V3.95455ZM100.844 31V9.18182H106.896V31H100.844ZM103.884 6.36932C102.985 6.36932 102.213 6.07102 101.569 5.47443C100.934 4.86837 100.617 4.14394 100.617 3.30114C100.617 2.4678 100.934 1.75284 101.569 1.15625C102.213 0.550188 102.985 0.247158 103.884 0.247158C104.784 0.247158 105.551 0.550188 106.185 1.15625C106.829 1.75284 107.151 2.4678 107.151 3.30114C107.151 4.14394 106.829 4.86837 106.185 5.47443C105.551 6.07102 104.784 6.36932 103.884 6.36932ZM123.476 9.18182V13.7273H110.01V9.18182H123.476ZM113.092 31V7.60511C113.092 6.02367 113.4 4.71212 114.016 3.67045C114.641 2.62879 115.493 1.84754 116.572 1.3267C117.652 0.805869 118.878 0.545453 120.251 0.545453C121.179 0.545453 122.027 0.616476 122.794 0.758523C123.571 0.900568 124.148 1.02841 124.527 1.14205L123.447 5.6875C123.211 5.61174 122.917 5.54072 122.567 5.47443C122.226 5.40814 121.875 5.375 121.516 5.375C120.625 5.375 120.005 5.58333 119.655 6C119.304 6.4072 119.129 6.98011 119.129 7.71875V31H113.092ZM141.164 21.7102V9.18182H147.215V31H141.406V27.0369H141.178C140.686 28.3153 139.867 29.3428 138.721 30.1193C137.585 30.8958 136.197 31.2841 134.559 31.2841C133.101 31.2841 131.817 30.9527 130.71 30.2898C129.602 29.6269 128.735 28.6847 128.11 27.4631C127.495 26.2415 127.182 24.7784 127.173 23.0739V9.18182H133.224V21.9943C133.233 23.2822 133.579 24.3002 134.261 25.0483C134.942 25.7964 135.856 26.1705 137.002 26.1705C137.731 26.1705 138.413 26.0047 139.048 25.6733C139.682 25.3324 140.193 24.8305 140.582 24.1676C140.979 23.5047 141.174 22.6856 141.164 21.7102ZM158.107 1.90909V31H152.055V1.90909H158.107ZM166.491 31.3693C165.553 31.3693 164.748 31.0379 164.076 30.375C163.413 29.7027 163.082 28.8977 163.082 27.9602C163.082 27.0322 163.413 26.2367 164.076 25.5739C164.748 24.911 165.553 24.5795 166.491 24.5795C167.4 24.5795 168.195 24.911 168.877 25.5739C169.559 26.2367 169.9 27.0322 169.9 27.9602C169.9 28.5852 169.739 29.1581 169.417 29.679C169.104 30.1903 168.692 30.6023 168.181 30.9148C167.67 31.2178 167.106 31.3693 166.491 31.3693Z" fill="white"/>
</svg>
