<svg width="398" height="852" viewBox="0 0 398 852" fill="none" xmlns="http://www.w3.org/2000/svg">
<g filter="url(#filter0_d_4_281)">
<rect width="390" height="844" transform="translate(4)" fill="white"/>
<path d="M59.9602 83V81.8352L64.6875 75.8295V75.75H60.1136V74.2727H66.8068V75.5114L62.2614 81.4432V81.5227H66.9659V83H59.9602ZM68.9702 86.2727V74.2727H70.6293V75.6875H70.7713C70.8698 75.5057 71.0118 75.2955 71.1974 75.0568C71.383 74.8182 71.6406 74.6098 71.9702 74.4318C72.2997 74.25 72.7353 74.1591 73.277 74.1591C73.9815 74.1591 74.6103 74.3371 75.1634 74.6932C75.7164 75.0492 76.1501 75.5625 76.4645 76.233C76.7827 76.9034 76.9418 77.7102 76.9418 78.6534C76.9418 79.5966 76.7846 80.4053 76.4702 81.0795C76.1558 81.75 75.724 82.267 75.1747 82.6307C74.6255 82.9905 73.9986 83.1705 73.294 83.1705C72.7637 83.1705 72.33 83.0814 71.9929 82.9034C71.6596 82.7254 71.3982 82.517 71.2088 82.2784C71.0194 82.0398 70.8736 81.8277 70.7713 81.642H70.669V86.2727H68.9702ZM70.6349 78.6364C70.6349 79.25 70.724 79.7879 70.902 80.25C71.08 80.7121 71.3376 81.0739 71.6747 81.3352C72.0118 81.5928 72.4247 81.7216 72.9134 81.7216C73.4209 81.7216 73.8452 81.5871 74.1861 81.3182C74.527 81.0455 74.7846 80.6761 74.9588 80.2102C75.1368 79.7443 75.2259 79.2197 75.2259 78.6364C75.2259 78.0606 75.1387 77.5436 74.9645 77.0852C74.794 76.6269 74.5365 76.2652 74.1918 76C73.8509 75.7348 73.4247 75.6023 72.9134 75.6023C72.4209 75.6023 72.0043 75.7292 71.6634 75.983C71.3262 76.2367 71.0705 76.5909 70.8963 77.0455C70.7221 77.5 70.6349 78.0303 70.6349 78.6364ZM82.6065 83.1761C81.7467 83.1761 81.0062 82.9924 80.3849 82.625C79.7675 82.2538 79.2902 81.733 78.9531 81.0625C78.6198 80.3883 78.4531 79.5985 78.4531 78.6932C78.4531 77.7992 78.6198 77.0114 78.9531 76.3295C79.2902 75.6477 79.7599 75.1155 80.3622 74.733C80.9683 74.3504 81.6766 74.1591 82.4872 74.1591C82.9796 74.1591 83.4569 74.2405 83.919 74.4034C84.3812 74.5663 84.7959 74.822 85.1634 75.1705C85.5308 75.5189 85.8205 75.9716 86.0327 76.5284C86.2448 77.0814 86.3509 77.7538 86.3509 78.5455V79.1477H79.4134V77.875H84.6861C84.6861 77.428 84.5952 77.0322 84.4134 76.6875C84.2315 76.339 83.9759 76.0644 83.6463 75.8636C83.3205 75.6629 82.938 75.5625 82.4986 75.5625C82.0213 75.5625 81.6046 75.6799 81.2486 75.9148C80.8963 76.1458 80.6236 76.4489 80.4304 76.8239C80.241 77.1951 80.1463 77.5985 80.1463 78.0341V79.0284C80.1463 79.6117 80.2486 80.108 80.4531 80.517C80.6615 80.9261 80.9512 81.2386 81.3224 81.4545C81.6937 81.6667 82.1274 81.7727 82.6236 81.7727C82.9455 81.7727 83.2391 81.7273 83.5043 81.6364C83.7694 81.5417 83.9986 81.4015 84.1918 81.2159C84.3849 81.0303 84.5327 80.8011 84.6349 80.5284L86.2429 80.8182C86.1141 81.2917 85.883 81.7064 85.5497 82.0625C85.2202 82.4148 84.8054 82.6894 84.3054 82.8864C83.8092 83.0795 83.2429 83.1761 82.6065 83.1761ZM81.2543 70.733L82.4247 72.2557L83.5895 70.733H85.1293V70.8182L83.1293 73.2273H81.7145L79.7202 70.8182V70.733H81.2543ZM92.3097 74.2727V75.6364H87.5426V74.2727H92.3097ZM88.821 72.1818H90.5199V80.4375C90.5199 80.767 90.5691 81.0152 90.6676 81.1818C90.7661 81.3447 90.893 81.4564 91.0483 81.517C91.2074 81.5739 91.3797 81.6023 91.5653 81.6023C91.7017 81.6023 91.821 81.5928 91.9233 81.5739C92.0256 81.5549 92.1051 81.5398 92.1619 81.5284L92.4688 82.9318C92.3703 82.9697 92.2301 83.0076 92.0483 83.0455C91.8665 83.0871 91.6392 83.1098 91.3665 83.1136C90.9195 83.1212 90.5028 83.0417 90.1165 82.875C89.7301 82.7083 89.4176 82.4508 89.179 82.1023C88.9403 81.7538 88.821 81.3163 88.821 80.7898V72.1818Z" fill="black"/>
<path d="M37.6464 78.6464C37.4512 78.8417 37.4512 79.1583 37.6464 79.3536L40.8284 82.5355C41.0237 82.7308 41.3403 82.7308 41.5355 82.5355C41.7308 82.3403 41.7308 82.0237 41.5355 81.8284L38.7071 79L41.5355 76.1716C41.7308 75.9763 41.7308 75.6597 41.5355 75.4645C41.3403 75.2692 41.0237 75.2692 40.8284 75.4645L37.6464 78.6464ZM53 78.5H38V79.5H53V78.5Z" fill="black"/>
<path d="M119.021 569.545V587H116.601L107.729 574.199H107.567V587H104.933V569.545H107.371L116.251 582.364H116.413V569.545H119.021ZM126.468 587.29C125.638 587.29 124.888 587.136 124.218 586.83C123.548 586.517 123.016 586.065 122.624 585.474C122.238 584.884 122.045 584.159 122.045 583.301C122.045 582.562 122.187 581.955 122.471 581.477C122.755 581 123.138 580.622 123.621 580.344C124.104 580.065 124.644 579.855 125.241 579.713C125.837 579.571 126.445 579.463 127.065 579.389C127.849 579.298 128.485 579.224 128.974 579.168C129.462 579.105 129.817 579.006 130.039 578.869C130.261 578.733 130.371 578.511 130.371 578.205V578.145C130.371 577.401 130.161 576.824 129.741 576.415C129.326 576.006 128.707 575.801 127.883 575.801C127.025 575.801 126.349 575.991 125.854 576.372C125.366 576.747 125.028 577.165 124.84 577.625L122.445 577.08C122.729 576.284 123.144 575.642 123.69 575.153C124.241 574.659 124.874 574.301 125.59 574.08C126.306 573.852 127.059 573.739 127.849 573.739C128.371 573.739 128.925 573.801 129.511 573.926C130.102 574.045 130.653 574.267 131.164 574.591C131.681 574.915 132.104 575.378 132.434 575.98C132.763 576.577 132.928 577.352 132.928 578.307V587H130.44V585.21H130.337C130.173 585.54 129.925 585.864 129.596 586.182C129.266 586.5 128.843 586.764 128.326 586.974C127.809 587.185 127.19 587.29 126.468 587.29ZM127.022 585.244C127.727 585.244 128.329 585.105 128.829 584.827C129.335 584.548 129.718 584.185 129.979 583.736C130.246 583.281 130.38 582.795 130.38 582.278V580.591C130.289 580.682 130.113 580.767 129.852 580.847C129.596 580.92 129.303 580.986 128.974 581.043C128.644 581.094 128.323 581.142 128.011 581.188C127.698 581.227 127.437 581.261 127.227 581.29C126.732 581.352 126.281 581.457 125.871 581.605C125.468 581.753 125.144 581.966 124.9 582.244C124.661 582.517 124.542 582.881 124.542 583.335C124.542 583.966 124.775 584.443 125.241 584.767C125.707 585.085 126.3 585.244 127.022 585.244ZM146.132 577.105L143.822 577.514C143.726 577.219 143.572 576.937 143.362 576.67C143.158 576.403 142.879 576.185 142.527 576.014C142.175 575.844 141.734 575.759 141.206 575.759C140.484 575.759 139.882 575.92 139.399 576.244C138.916 576.562 138.675 576.974 138.675 577.48C138.675 577.918 138.837 578.27 139.161 578.537C139.484 578.804 140.007 579.023 140.729 579.193L142.808 579.67C144.013 579.949 144.911 580.378 145.501 580.957C146.092 581.537 146.388 582.29 146.388 583.216C146.388 584 146.161 584.699 145.706 585.312C145.257 585.92 144.629 586.398 143.822 586.744C143.021 587.091 142.092 587.264 141.036 587.264C139.57 587.264 138.374 586.952 137.447 586.327C136.521 585.696 135.953 584.801 135.743 583.642L138.206 583.267C138.359 583.909 138.675 584.395 139.152 584.724C139.629 585.048 140.251 585.21 141.018 585.21C141.854 585.21 142.521 585.037 143.021 584.69C143.521 584.338 143.771 583.909 143.771 583.403C143.771 582.994 143.618 582.651 143.311 582.372C143.01 582.094 142.547 581.884 141.922 581.741L139.706 581.256C138.484 580.977 137.581 580.534 136.996 579.926C136.416 579.318 136.126 578.548 136.126 577.616C136.126 576.844 136.342 576.168 136.774 575.588C137.206 575.009 137.803 574.557 138.564 574.233C139.325 573.903 140.197 573.739 141.18 573.739C142.595 573.739 143.709 574.045 144.521 574.659C145.334 575.267 145.871 576.082 146.132 577.105ZM151.533 582.56L151.516 579.449H151.96L157.175 573.909H160.227L154.278 580.216H153.877L151.533 582.56ZM149.19 587V569.545H151.738V587H149.19ZM157.457 587L152.769 580.778L154.525 578.997L160.585 587H157.457ZM167.652 587.264C166.362 587.264 165.251 586.989 164.32 586.438C163.393 585.881 162.678 585.099 162.172 584.094C161.672 583.082 161.422 581.898 161.422 580.54C161.422 579.199 161.672 578.017 162.172 576.994C162.678 575.972 163.382 575.173 164.286 574.599C165.195 574.026 166.257 573.739 167.473 573.739C168.212 573.739 168.928 573.861 169.621 574.105C170.314 574.349 170.936 574.733 171.487 575.256C172.038 575.778 172.473 576.457 172.791 577.293C173.109 578.122 173.268 579.131 173.268 580.318V581.222H162.862V579.312H170.771C170.771 578.642 170.635 578.048 170.362 577.531C170.089 577.009 169.706 576.597 169.212 576.295C168.723 575.994 168.149 575.844 167.49 575.844C166.774 575.844 166.149 576.02 165.615 576.372C165.087 576.719 164.678 577.173 164.388 577.736C164.104 578.293 163.962 578.898 163.962 579.551V581.043C163.962 581.918 164.115 582.662 164.422 583.276C164.734 583.889 165.169 584.358 165.726 584.682C166.283 585 166.933 585.159 167.678 585.159C168.161 585.159 168.601 585.091 168.999 584.955C169.396 584.812 169.74 584.602 170.03 584.324C170.32 584.045 170.541 583.702 170.695 583.293L173.107 583.727C172.913 584.437 172.567 585.06 172.067 585.594C171.572 586.122 170.95 586.534 170.2 586.83C169.456 587.119 168.607 587.264 167.652 587.264ZM178.644 579.227V587H176.096V573.909H178.542V576.04H178.704C179.005 575.347 179.477 574.79 180.119 574.369C180.766 573.949 181.582 573.739 182.565 573.739C183.457 573.739 184.238 573.926 184.908 574.301C185.579 574.67 186.099 575.222 186.468 575.955C186.837 576.687 187.022 577.594 187.022 578.673V587H184.474V578.98C184.474 578.031 184.227 577.29 183.732 576.756C183.238 576.216 182.559 575.946 181.695 575.946C181.104 575.946 180.579 576.074 180.119 576.33C179.664 576.585 179.303 576.96 179.036 577.455C178.775 577.943 178.644 578.534 178.644 579.227ZM198.732 581.571V573.909H201.289V587H198.783V584.733H198.647C198.346 585.432 197.863 586.014 197.198 586.48C196.539 586.94 195.718 587.17 194.735 587.17C193.894 587.17 193.15 586.986 192.502 586.616C191.86 586.241 191.354 585.688 190.985 584.955C190.621 584.222 190.44 583.315 190.44 582.236V573.909H192.988V581.929C192.988 582.821 193.235 583.531 193.729 584.06C194.224 584.588 194.866 584.852 195.656 584.852C196.133 584.852 196.607 584.733 197.079 584.494C197.556 584.256 197.951 583.895 198.263 583.412C198.582 582.929 198.738 582.315 198.732 581.571ZM204.713 573.909H207.261V587.852C207.261 588.727 207.102 589.466 206.784 590.068C206.472 590.67 206.006 591.128 205.386 591.44C204.773 591.753 204.014 591.909 203.111 591.909C203.02 591.909 202.935 591.909 202.855 591.909C202.77 591.909 202.682 591.906 202.591 591.901V589.71C202.67 589.71 202.741 589.71 202.804 589.71C202.861 589.71 202.926 589.71 203 589.71C203.602 589.71 204.037 589.548 204.304 589.224C204.577 588.906 204.713 588.443 204.713 587.835V573.909ZM205.974 571.889C205.531 571.889 205.151 571.741 204.832 571.446C204.52 571.145 204.364 570.787 204.364 570.372C204.364 569.952 204.52 569.594 204.832 569.298C205.151 568.997 205.531 568.847 205.974 568.847C206.418 568.847 206.795 568.997 207.108 569.298C207.426 569.594 207.585 569.952 207.585 570.372C207.585 570.787 207.426 571.145 207.108 571.446C206.795 571.741 206.418 571.889 205.974 571.889ZM212.369 587.162C211.903 587.162 211.502 586.997 211.167 586.668C210.832 586.332 210.664 585.929 210.664 585.457C210.664 584.991 210.832 584.594 211.167 584.264C211.502 583.929 211.903 583.761 212.369 583.761C212.835 583.761 213.235 583.929 213.57 584.264C213.906 584.594 214.073 584.991 214.073 585.457C214.073 585.77 213.994 586.057 213.835 586.318C213.681 586.574 213.477 586.778 213.221 586.932C212.965 587.085 212.681 587.162 212.369 587.162ZM223.761 587V569.545H229.983C231.341 569.545 232.466 569.793 233.358 570.287C234.25 570.781 234.918 571.457 235.361 572.315C235.804 573.168 236.026 574.128 236.026 575.196C236.026 576.27 235.801 577.236 235.352 578.094C234.909 578.946 234.239 579.622 233.341 580.122C232.449 580.616 231.327 580.864 229.974 580.864H225.696V578.631H229.736C230.594 578.631 231.29 578.483 231.824 578.188C232.358 577.886 232.75 577.477 233 576.96C233.25 576.443 233.375 575.855 233.375 575.196C233.375 574.537 233.25 573.952 233 573.44C232.75 572.929 232.355 572.528 231.815 572.239C231.281 571.949 230.577 571.804 229.702 571.804H226.395V587H223.761ZM238.908 587V573.909H241.371V575.989H241.508C241.746 575.284 242.167 574.73 242.769 574.327C243.377 573.918 244.065 573.713 244.832 573.713C244.991 573.713 245.178 573.719 245.394 573.73C245.616 573.741 245.789 573.756 245.914 573.773V576.21C245.812 576.182 245.63 576.151 245.369 576.116C245.107 576.077 244.846 576.057 244.585 576.057C243.982 576.057 243.445 576.185 242.974 576.44C242.508 576.69 242.138 577.04 241.866 577.489C241.593 577.932 241.457 578.437 241.457 579.006V587H238.908ZM240.528 568.599L242.283 570.884L244.031 568.599H246.34V568.727L243.34 572.341H241.218L238.227 568.727V568.599H240.528ZM248.119 587V573.909H250.668V587H248.119ZM249.406 571.889C248.963 571.889 248.582 571.741 248.264 571.446C247.952 571.145 247.795 570.787 247.795 570.372C247.795 569.952 247.952 569.594 248.264 569.298C248.582 568.997 248.963 568.847 249.406 568.847C249.849 568.847 250.227 568.997 250.54 569.298C250.858 569.594 251.017 569.952 251.017 570.372C251.017 570.787 250.858 571.145 250.54 571.446C250.227 571.741 249.849 571.889 249.406 571.889ZM258.996 587.256C257.94 587.256 256.996 586.986 256.167 586.446C255.343 585.901 254.695 585.125 254.224 584.119C253.758 583.108 253.525 581.895 253.525 580.48C253.525 579.065 253.761 577.855 254.232 576.849C254.71 575.844 255.363 575.074 256.192 574.54C257.022 574.006 257.962 573.739 259.013 573.739C259.826 573.739 260.479 573.875 260.974 574.148C261.474 574.415 261.86 574.727 262.133 575.085C262.411 575.443 262.627 575.759 262.781 576.031H262.934V569.545H265.482V587H262.994V584.963H262.781C262.627 585.241 262.406 585.56 262.116 585.918C261.832 586.276 261.44 586.588 260.94 586.855C260.44 587.122 259.792 587.256 258.996 587.256ZM259.559 585.082C260.292 585.082 260.911 584.889 261.417 584.503C261.928 584.111 262.315 583.568 262.576 582.875C262.843 582.182 262.977 581.375 262.977 580.455C262.977 579.545 262.846 578.75 262.585 578.068C262.323 577.386 261.94 576.855 261.434 576.474C260.928 576.094 260.303 575.903 259.559 575.903C258.792 575.903 258.153 576.102 257.641 576.5C257.13 576.898 256.744 577.44 256.482 578.128C256.227 578.815 256.099 579.591 256.099 580.455C256.099 581.33 256.229 582.116 256.491 582.815C256.752 583.514 257.138 584.068 257.65 584.477C258.167 584.881 258.803 585.082 259.559 585.082ZM274.761 587.264C273.472 587.264 272.361 586.989 271.429 586.438C270.503 585.881 269.787 585.099 269.281 584.094C268.781 583.082 268.531 581.898 268.531 580.54C268.531 579.199 268.781 578.017 269.281 576.994C269.787 575.972 270.491 575.173 271.395 574.599C272.304 574.026 273.366 573.739 274.582 573.739C275.321 573.739 276.037 573.861 276.73 574.105C277.423 574.349 278.045 574.733 278.597 575.256C279.148 575.778 279.582 576.457 279.901 577.293C280.219 578.122 280.378 579.131 280.378 580.318V581.222H269.972V579.312H277.881C277.881 578.642 277.744 578.048 277.472 577.531C277.199 577.009 276.815 576.597 276.321 576.295C275.832 575.994 275.259 575.844 274.599 575.844C273.884 575.844 273.259 576.02 272.724 576.372C272.196 576.719 271.787 577.173 271.497 577.736C271.213 578.293 271.071 578.898 271.071 579.551V581.043C271.071 581.918 271.224 582.662 271.531 583.276C271.844 583.889 272.278 584.358 272.835 584.682C273.392 585 274.043 585.159 274.787 585.159C275.27 585.159 275.71 585.091 276.108 584.955C276.506 584.812 276.849 584.602 277.139 584.324C277.429 584.045 277.651 583.702 277.804 583.293L280.216 583.727C280.023 584.437 279.676 585.06 279.176 585.594C278.682 586.122 278.06 586.534 277.31 586.83C276.565 587.119 275.716 587.264 274.761 587.264ZM283.205 573.909H285.754V587.852C285.754 588.727 285.594 589.466 285.276 590.068C284.964 590.67 284.498 591.128 283.879 591.44C283.265 591.753 282.506 591.909 281.603 591.909C281.512 591.909 281.427 591.909 281.347 591.909C281.262 591.909 281.174 591.906 281.083 591.901V589.71C281.163 589.71 281.234 589.71 281.296 589.71C281.353 589.71 281.418 589.71 281.492 589.71C282.094 589.71 282.529 589.548 282.796 589.224C283.069 588.906 283.205 588.443 283.205 587.835V573.909ZM284.467 571.889C284.023 571.889 283.643 571.741 283.325 571.446C283.012 571.145 282.856 570.787 282.856 570.372C282.856 569.952 283.012 569.594 283.325 569.298C283.643 568.997 284.023 568.847 284.467 568.847C284.91 568.847 285.288 568.997 285.6 569.298C285.918 569.594 286.077 569.952 286.077 570.372C286.077 570.787 285.918 571.145 285.6 571.446C285.288 571.741 284.91 571.889 284.467 571.889ZM290.861 587.162C290.395 587.162 289.994 586.997 289.659 586.668C289.324 586.332 289.156 585.929 289.156 585.457C289.156 584.991 289.324 584.594 289.659 584.264C289.994 583.929 290.395 583.761 290.861 583.761C291.327 583.761 291.727 583.929 292.062 584.264C292.398 584.594 292.565 584.991 292.565 585.457C292.565 585.77 292.486 586.057 292.327 586.318C292.173 586.574 291.969 586.778 291.713 586.932C291.457 587.085 291.173 587.162 290.861 587.162ZM161.359 616V598.545H167.581C168.939 598.545 170.064 598.793 170.956 599.287C171.848 599.781 172.515 600.457 172.958 601.315C173.402 602.168 173.623 603.128 173.623 604.196C173.623 605.27 173.399 606.236 172.95 607.094C172.507 607.946 171.836 608.622 170.939 609.122C170.047 609.616 168.924 609.864 167.572 609.864H163.294V607.631H167.333C168.191 607.631 168.887 607.483 169.422 607.188C169.956 606.886 170.348 606.477 170.598 605.96C170.848 605.443 170.973 604.855 170.973 604.196C170.973 603.537 170.848 602.952 170.598 602.44C170.348 601.929 169.953 601.528 169.413 601.239C168.879 600.949 168.174 600.804 167.299 600.804H163.993V616H161.359ZM181.984 616.264C180.694 616.264 179.583 615.989 178.652 615.438C177.725 614.881 177.01 614.099 176.504 613.094C176.004 612.082 175.754 610.898 175.754 609.54C175.754 608.199 176.004 607.017 176.504 605.994C177.01 604.972 177.714 604.173 178.618 603.599C179.527 603.026 180.589 602.739 181.805 602.739C182.544 602.739 183.26 602.861 183.953 603.105C184.646 603.349 185.268 603.733 185.819 604.256C186.37 604.778 186.805 605.457 187.123 606.293C187.441 607.122 187.6 608.131 187.6 609.318V610.222H177.194V608.312H185.103C185.103 607.642 184.967 607.048 184.694 606.531C184.422 606.009 184.038 605.597 183.544 605.295C183.055 604.994 182.481 604.844 181.822 604.844C181.106 604.844 180.481 605.02 179.947 605.372C179.419 605.719 179.01 606.173 178.72 606.736C178.436 607.293 178.294 607.898 178.294 608.551V610.043C178.294 610.918 178.447 611.662 178.754 612.276C179.066 612.889 179.501 613.358 180.058 613.682C180.615 614 181.265 614.159 182.01 614.159C182.493 614.159 182.933 614.091 183.331 613.955C183.728 613.812 184.072 613.602 184.362 613.324C184.652 613.045 184.873 612.702 185.027 612.293L187.439 612.727C187.245 613.437 186.899 614.06 186.399 614.594C185.904 615.122 185.282 615.534 184.532 615.83C183.788 616.119 182.939 616.264 181.984 616.264ZM179.956 597.599L181.711 599.884L183.458 597.599H185.768V597.727L182.768 601.341H180.646L177.654 597.727V597.599H179.956ZM200.238 606.105L197.928 606.514C197.831 606.219 197.678 605.937 197.468 605.67C197.263 605.403 196.985 605.185 196.632 605.014C196.28 604.844 195.84 604.759 195.311 604.759C194.59 604.759 193.988 604.92 193.505 605.244C193.022 605.562 192.78 605.974 192.78 606.48C192.78 606.918 192.942 607.27 193.266 607.537C193.59 607.804 194.113 608.023 194.834 608.193L196.914 608.67C198.118 608.949 199.016 609.378 199.607 609.957C200.198 610.537 200.493 611.29 200.493 612.216C200.493 613 200.266 613.699 199.811 614.312C199.363 614.92 198.735 615.398 197.928 615.744C197.127 616.091 196.198 616.264 195.141 616.264C193.675 616.264 192.479 615.952 191.553 615.327C190.627 614.696 190.059 613.801 189.848 612.642L192.311 612.267C192.465 612.909 192.78 613.395 193.257 613.724C193.735 614.048 194.357 614.21 195.124 614.21C195.959 614.21 196.627 614.037 197.127 613.69C197.627 613.338 197.877 612.909 197.877 612.403C197.877 611.994 197.723 611.651 197.417 611.372C197.115 611.094 196.652 610.884 196.027 610.741L193.811 610.256C192.59 609.977 191.686 609.534 191.101 608.926C190.522 608.318 190.232 607.548 190.232 606.616C190.232 605.844 190.448 605.168 190.88 604.588C191.311 604.009 191.908 603.557 192.669 603.233C193.431 602.903 194.303 602.739 195.286 602.739C196.701 602.739 197.814 603.045 198.627 603.659C199.439 604.267 199.976 605.082 200.238 606.105ZM209.406 602.909V604.955H202.255V602.909H209.406ZM204.173 599.773H206.721V612.156C206.721 612.651 206.795 613.023 206.943 613.273C207.091 613.517 207.281 613.685 207.514 613.776C207.752 613.861 208.011 613.903 208.289 613.903C208.494 613.903 208.673 613.889 208.826 613.861C208.98 613.832 209.099 613.81 209.184 613.793L209.645 615.898C209.497 615.955 209.287 616.011 209.014 616.068C208.741 616.131 208.4 616.165 207.991 616.17C207.321 616.182 206.696 616.062 206.116 615.812C205.537 615.562 205.068 615.176 204.71 614.653C204.352 614.131 204.173 613.474 204.173 612.685V599.773ZM220.517 610.571V602.909H223.074V616H220.569V613.733H220.432C220.131 614.432 219.648 615.014 218.983 615.48C218.324 615.94 217.503 616.17 216.52 616.17C215.679 616.17 214.935 615.986 214.287 615.616C213.645 615.241 213.14 614.688 212.77 613.955C212.407 613.222 212.225 612.315 212.225 611.236V602.909H214.773V610.929C214.773 611.821 215.02 612.531 215.515 613.06C216.009 613.588 216.651 613.852 217.441 613.852C217.918 613.852 218.392 613.733 218.864 613.494C219.341 613.256 219.736 612.895 220.049 612.412C220.367 611.929 220.523 611.315 220.517 610.571ZM226.498 602.909H229.047V616.852C229.047 617.727 228.887 618.466 228.569 619.068C228.257 619.67 227.791 620.128 227.172 620.44C226.558 620.753 225.799 620.909 224.896 620.909C224.805 620.909 224.72 620.909 224.64 620.909C224.555 620.909 224.467 620.906 224.376 620.901V618.71C224.456 618.71 224.527 618.71 224.589 618.71C224.646 618.71 224.711 618.71 224.785 618.71C225.387 618.71 225.822 618.548 226.089 618.224C226.362 617.906 226.498 617.443 226.498 616.835V602.909ZM227.76 600.889C227.316 600.889 226.936 600.741 226.618 600.446C226.305 600.145 226.149 599.787 226.149 599.372C226.149 598.952 226.305 598.594 226.618 598.298C226.936 597.997 227.316 597.847 227.76 597.847C228.203 597.847 228.581 597.997 228.893 598.298C229.211 598.594 229.37 598.952 229.37 599.372C229.37 599.787 229.211 600.145 228.893 600.446C228.581 600.741 228.203 600.889 227.76 600.889ZM234.154 616.162C233.688 616.162 233.287 615.997 232.952 615.668C232.617 615.332 232.449 614.929 232.449 614.457C232.449 613.991 232.617 613.594 232.952 613.264C233.287 612.929 233.688 612.761 234.154 612.761C234.62 612.761 235.02 612.929 235.355 613.264C235.691 613.594 235.858 613.991 235.858 614.457C235.858 614.77 235.779 615.057 235.62 615.318C235.466 615.574 235.262 615.778 235.006 615.932C234.75 616.085 234.466 616.162 234.154 616.162Z" fill="black"/>
<path d="M59 680C59 670.611 66.6112 663 76 663H338V689C338 698.389 330.389 706 321 706H76C66.6112 706 59 698.389 59 689V680Z" fill="#205950"/>
<path d="M170.552 691V679.364H174.7C175.601 679.364 176.349 679.519 176.944 679.83C177.542 680.14 177.989 680.57 178.285 681.119C178.58 681.665 178.728 682.295 178.728 683.011C178.728 683.723 178.578 684.35 178.279 684.892C177.984 685.43 177.537 685.848 176.938 686.148C176.344 686.447 175.595 686.597 174.694 686.597H171.552V685.085H174.535C175.103 685.085 175.565 685.004 175.921 684.841C176.281 684.678 176.544 684.441 176.711 684.131C176.878 683.82 176.961 683.447 176.961 683.011C176.961 682.572 176.876 682.191 176.705 681.869C176.539 681.547 176.275 681.301 175.915 681.131C175.559 680.956 175.092 680.869 174.512 680.869H172.308V691H170.552ZM176.296 685.75L179.171 691H177.171L174.353 685.75H176.296ZM184.295 691.176C183.477 691.176 182.763 690.989 182.153 690.614C181.543 690.239 181.069 689.714 180.732 689.04C180.395 688.366 180.227 687.578 180.227 686.676C180.227 685.771 180.395 684.979 180.732 684.301C181.069 683.623 181.543 683.097 182.153 682.722C182.763 682.347 183.477 682.159 184.295 682.159C185.113 682.159 185.827 682.347 186.437 682.722C187.047 683.097 187.52 683.623 187.857 684.301C188.194 684.979 188.363 685.771 188.363 686.676C188.363 687.578 188.194 688.366 187.857 689.04C187.52 689.714 187.047 690.239 186.437 690.614C185.827 690.989 185.113 691.176 184.295 691.176ZM184.3 689.75C184.831 689.75 185.27 689.61 185.619 689.33C185.967 689.049 186.225 688.676 186.391 688.21C186.562 687.744 186.647 687.231 186.647 686.67C186.647 686.114 186.562 685.602 186.391 685.136C186.225 684.667 185.967 684.29 185.619 684.006C185.27 683.722 184.831 683.58 184.3 683.58C183.766 683.58 183.323 683.722 182.971 684.006C182.622 684.29 182.363 684.667 182.192 685.136C182.026 685.602 181.942 686.114 181.942 686.67C181.942 687.231 182.026 687.744 182.192 688.21C182.363 688.676 182.622 689.049 182.971 689.33C183.323 689.61 183.766 689.75 184.3 689.75ZM190.077 691V689.835L194.805 683.83V683.75H190.231V682.273H196.924V683.511L192.379 689.443V689.523H197.083V691H190.077ZM204.616 687.381V682.273H206.32V691H204.65V689.489H204.559C204.358 689.955 204.036 690.343 203.593 690.653C203.154 690.96 202.606 691.114 201.951 691.114C201.39 691.114 200.894 690.991 200.462 690.744C200.034 690.494 199.697 690.125 199.451 689.636C199.209 689.148 199.087 688.544 199.087 687.824V682.273H200.786V687.619C200.786 688.214 200.951 688.687 201.281 689.04C201.61 689.392 202.038 689.568 202.565 689.568C202.883 689.568 203.199 689.489 203.513 689.33C203.832 689.17 204.095 688.93 204.303 688.608C204.515 688.286 204.62 687.877 204.616 687.381ZM208.603 691V682.273H210.234V683.693H210.342C210.523 683.212 210.821 682.837 211.234 682.568C211.647 682.295 212.141 682.159 212.717 682.159C213.3 682.159 213.789 682.295 214.183 682.568C214.58 682.841 214.874 683.216 215.063 683.693H215.154C215.362 683.227 215.694 682.856 216.148 682.58C216.603 682.299 217.145 682.159 217.773 682.159C218.565 682.159 219.211 682.407 219.711 682.903C220.215 683.4 220.467 684.148 220.467 685.148V691H218.768V685.307C218.768 684.716 218.607 684.288 218.285 684.023C217.963 683.758 217.578 683.625 217.131 683.625C216.578 683.625 216.148 683.795 215.842 684.136C215.535 684.473 215.381 684.907 215.381 685.438V691H213.688V685.199C213.688 684.725 213.54 684.345 213.245 684.057C212.95 683.769 212.565 683.625 212.092 683.625C211.77 683.625 211.472 683.71 211.2 683.881C210.931 684.047 210.713 684.28 210.546 684.58C210.383 684.879 210.302 685.225 210.302 685.619V691H208.603ZM222.744 691V682.273H224.442V691H222.744ZM222.903 681.108L224.232 678.489H226.022L224.261 681.108H222.903ZM226.728 691V682.273H228.359V683.693H228.467C228.648 683.212 228.946 682.837 229.359 682.568C229.772 682.295 230.266 682.159 230.842 682.159C231.425 682.159 231.914 682.295 232.308 682.568C232.705 682.841 232.999 683.216 233.188 683.693H233.279C233.487 683.227 233.819 682.856 234.273 682.58C234.728 682.299 235.27 682.159 235.898 682.159C236.69 682.159 237.336 682.407 237.836 682.903C238.34 683.4 238.592 684.148 238.592 685.148V691H236.893V685.307C236.893 684.716 236.732 684.288 236.41 684.023C236.088 683.758 235.703 683.625 235.256 683.625C234.703 683.625 234.273 683.795 233.967 684.136C233.66 684.473 233.506 684.907 233.506 685.438V691H231.813V685.199C231.813 684.725 231.665 684.345 231.37 684.057C231.075 683.769 230.69 683.625 230.217 683.625C229.895 683.625 229.597 683.71 229.325 683.881C229.056 684.047 228.838 684.28 228.671 684.58C228.508 684.879 228.427 685.225 228.427 685.619V691H226.728Z" fill="white"/>
<g clip-path="url(#clip0_4_281)">
<path fill-rule="evenodd" clip-rule="evenodd" d="M211.791 263.057C206.079 261.921 200.527 265.631 199.392 271.343L172.656 405.8C171.521 411.512 175.231 417.063 180.943 418.199L234.482 428.845C240.194 429.981 245.746 426.271 246.881 420.558L273.617 286.102C274.753 280.389 271.043 274.838 265.33 273.702L211.791 263.057ZM212.524 265.733C207.819 264.798 203.248 267.853 202.312 272.557L175.94 405.188C175.005 409.893 178.06 414.464 182.764 415.4L233.87 425.562C238.574 426.497 243.146 423.442 244.081 418.738L270.453 286.106C271.389 281.402 268.333 276.83 263.629 275.895L212.524 265.733Z" fill="black"/>
<rect x="227.857" y="271.312" width="19.85" height="6.20312" rx="3.10156" transform="rotate(11.2459 227.857 271.312)" fill="black"/>
<path d="M236.743 373.531C233.366 381.499 226.066 398.478 221.908 398.829C216.814 398.779 199.63 397.461 199.24 392.531C198.826 384.787 197.768 372.823 197.638 366.16M197.638 366.16C214.806 373.854 232.374 374.144 239.011 373.328C240.092 373.045 239.809 371.964 241.12 368.156C241.431 366.677 241.114 365.715 240.423 364.996M197.638 366.16C196.338 365.595 196.067 364.346 196.094 363.793C196.113 361.811 195.977 357.635 198.035 356.083M240.423 364.996C239.744 364.289 238.703 363.817 237.542 363.32C217.138 355.966 204.891 355.944 200.389 355.507C199.389 355.41 198.622 355.639 198.035 356.083M240.423 364.996C239.03 366.031 232.594 367.14 218.002 363.295C207.828 360.695 199.821 359.521 198.035 356.083" stroke="black" stroke-width="3.50803" stroke-linejoin="round"/>
<path d="M221.048 301.298C218.798 299.512 213.918 296.188 213.852 296.503C213.323 299.017 213.009 298.951 212.414 301.779C211.076 309.703 213.065 313.998 214.057 315.519C215.729 318.496 216.057 319.019 217.057 320.519C217.561 321.275 218.39 321.742 220.872 325.546C223.916 329.796 224.032 330.805 224.264 332.823C224.464 338.116 223.869 340.945 223.274 343.773C222.68 346.602 220.092 360.466 219.762 362.037C219.696 362.352 220.705 362.236 221.019 362.302C222.837 356.777 224.432 341.391 224.712 338.496C226.1 331.896 227.907 332.387 231.013 331.945C234.734 331.415 240.043 329.578 244.409 327.542C251.335 324.314 255.026 317.632 255.158 317.003C253.901 316.739 251.899 315.333 249.071 314.739C234.994 311.45 227.786 327 225.323 334.03C225.141 333.336 226.066 328.937 226.925 324.852L226.925 324.85C230.858 309.268 222.669 302.951 221.048 301.298Z" fill="#205950"/>
<path d="M246.867 316.667C240.797 316.667 237.81 318.991 233.058 325.019" stroke="#3B786E" stroke-width="1.68089" stroke-linecap="round" stroke-linejoin="round"/>
<path d="M214.558 306.519C214.558 309.366 214.953 312.866 220.452 319.866" stroke="#3B786E" stroke-width="1.68089" stroke-linecap="round" stroke-linejoin="round"/>
<path d="M256.726 165.25L246.272 165.25" stroke="black" stroke-width="3.94309" stroke-linecap="round"/>
<mask id="path-14-inside-1_4_281" fill="white">
<path fill-rule="evenodd" clip-rule="evenodd" d="M260.125 176.5H254.375V175.094H260.125C260.919 175.094 261.563 174.464 261.563 173.686V168.063H263V173.686C263 175.242 261.712 176.5 260.125 176.5ZM261.563 156.815C261.563 156.036 260.919 155.406 260.125 155.406H254.375V154H260.125C261.712 154 263 155.26 263 156.815V162.438H261.563V156.815ZM240 173.686V168.063H241.438V173.686C241.438 174.464 242.08 175.094 242.875 175.094H248.625V176.5H242.875C241.288 176.5 240 175.242 240 173.686ZM241.438 156.815V162.438H240V156.815C240 155.26 241.288 154 242.875 154H248.625V155.406H242.875C242.08 155.406 241.438 156.036 241.438 156.815Z"/>
</mask>
<path fill-rule="evenodd" clip-rule="evenodd" d="M260.125 176.5H254.375V175.094H260.125C260.919 175.094 261.563 174.464 261.563 173.686V168.063H263V173.686C263 175.242 261.712 176.5 260.125 176.5ZM261.563 156.815C261.563 156.036 260.919 155.406 260.125 155.406H254.375V154H260.125C261.712 154 263 155.26 263 156.815V162.438H261.563V156.815ZM240 173.686V168.063H241.438V173.686C241.438 174.464 242.08 175.094 242.875 175.094H248.625V176.5H242.875C241.288 176.5 240 175.242 240 173.686ZM241.438 156.815V162.438H240V156.815C240 155.26 241.288 154 242.875 154H248.625V155.406H242.875C242.08 155.406 241.438 156.036 241.438 156.815Z" fill="black"/>
<path d="M254.375 176.5H252.837V178.038H254.375V176.5ZM254.375 175.094V173.556H252.837V175.094H254.375ZM261.563 168.063V166.525H260.024V168.063H261.563ZM263 168.063H264.538V166.525H263V168.063ZM254.375 155.406H252.837V156.944H254.375V155.406ZM254.375 154V152.462H252.837V154H254.375ZM263 162.438V163.976H264.538V162.438H263ZM261.563 162.438H260.024V163.976H261.563V162.438ZM240 168.063V166.525H238.462V168.063H240ZM241.438 168.063H242.976V166.525H241.438V168.063ZM248.625 175.094H250.163V173.556H248.625V175.094ZM248.625 176.5V178.038H250.163V176.5H248.625ZM241.438 162.438V163.976H242.976V162.438H241.438ZM240 162.438H238.462V163.976H240V162.438ZM248.625 154H250.163V152.462H248.625V154ZM248.625 155.406V156.944H250.163V155.406H248.625ZM260.125 174.962H254.375V178.038H260.125V174.962ZM255.913 176.5V175.094H252.837V176.5H255.913ZM254.375 176.632H260.125V173.556H254.375V176.632ZM260.125 176.632C261.737 176.632 263.101 175.344 263.101 173.686H260.024C260.024 173.64 260.046 173.602 260.065 173.582C260.084 173.564 260.108 173.556 260.125 173.556V176.632ZM263.101 173.686V168.063H260.024V173.686H263.101ZM261.563 169.601H263V166.525H261.563V169.601ZM261.462 168.063V173.686H264.538V168.063H261.462ZM261.462 173.686C261.462 174.36 260.895 174.962 260.125 174.962V178.038C262.529 178.038 264.538 176.123 264.538 173.686H261.462ZM263.101 156.815C263.101 155.157 261.738 153.868 260.125 153.868V156.944C260.108 156.944 260.084 156.936 260.065 156.917C260.045 156.898 260.024 156.86 260.024 156.815H263.101ZM260.125 153.868H254.375V156.944H260.125V153.868ZM255.913 155.406V154H252.837V155.406H255.913ZM254.375 155.538H260.125V152.462H254.375V155.538ZM260.125 155.538C260.894 155.538 261.462 156.14 261.462 156.815H264.538C264.538 154.38 262.53 152.462 260.125 152.462V155.538ZM261.462 156.815V162.438H264.538V156.815H261.462ZM263 160.9H261.563V163.976H263V160.9ZM263.101 162.438V156.815H260.024V162.438H263.101ZM241.538 173.686V168.063H238.462V173.686H241.538ZM240 169.601H241.438V166.525H240V169.601ZM239.899 168.063V173.686H242.976V168.063H239.899ZM239.899 173.686C239.899 175.343 241.261 176.632 242.875 176.632V173.556C242.891 173.556 242.915 173.564 242.934 173.583C242.955 173.603 242.976 173.641 242.976 173.686H239.899ZM242.875 176.632H248.625V173.556H242.875V176.632ZM247.087 175.094V176.5H250.163V175.094H247.087ZM248.625 174.962H242.875V178.038H248.625V174.962ZM242.875 174.962C242.105 174.962 241.538 174.36 241.538 173.686H238.462C238.462 176.123 240.471 178.038 242.875 178.038V174.962ZM239.899 156.815V162.438H242.976V156.815H239.899ZM241.438 160.9H240V163.976H241.438V160.9ZM241.538 162.438V156.815H238.462V162.438H241.538ZM241.538 156.815C241.538 156.14 242.106 155.538 242.875 155.538V152.462C240.47 152.462 238.462 154.38 238.462 156.815H241.538ZM242.875 155.538H248.625V152.462H242.875V155.538ZM247.087 154V155.406H250.163V154H247.087ZM248.625 153.868H242.875V156.944H248.625V153.868ZM242.875 153.868C241.26 153.868 239.899 155.158 239.899 156.815H242.976C242.976 156.859 242.955 156.897 242.935 156.917C242.915 156.936 242.891 156.944 242.875 156.944V153.868Z" fill="black" mask="url(#path-14-inside-1_4_281)"/>
<path d="M249.255 411.548C255.548 420.765 257.79 432.803 258.437 443.8C260.698 458.92 292.431 490.973 295 495.5L304 480.5L282.419 414.5L275 383.5L263.108 355.444C262.938 355.055 261.794 352.863 260.5 352L258.846 360.441C258.446 362.026 258.278 362.972 257.768 365.843L257.753 365.927C256.866 368.5 258.58 370.323 257.933 372.263C257.807 372.641 257.131 372.781 254.026 369.676C246.91 361.266 244.973 363.207 236.563 366.441C231.391 365.148 224.92 365.148 222.979 367.088C221.687 368.382 222.331 370.323 225.565 374.204C228.799 378.732 232.032 381.32 240.441 385.201C250.791 393.61 250.033 403.849 249.255 411.548Z" fill="#BF835F"/>
<path d="M168.662 406.875C162.97 406.357 158.312 408.815 156.372 408.815H136.318C135.025 408.815 140.566 403.829 144.447 401.241C149.577 399.317 153.503 400.594 159.325 399.3C163.147 399.3 163.487 402.993 166.722 404.287C173.039 407.007 172.21 408.934 172.892 404.577C173.382 402.813 173.377 401.474 174.484 396.845C173.837 394.904 169.009 391.049 166.722 388.762C164.781 386.821 145.664 386.281 146.668 385.528C149.256 383.587 156.372 385.528 160.253 385.528C164.134 385.528 164.781 384.234 168.662 385.528C170.732 388.115 174.269 389.729 175.778 390.376L178.365 376.145C176.64 374.635 172.802 370.132 171.25 368.062C169.956 365.474 166.075 366.768 157.665 368.709C156.372 368.709 162.84 364.181 168.662 362.887C175.39 362.369 179.659 363.423 180.953 364.501C181.6 360.62 183.291 353.054 183.809 349.949C179.281 348.009 173.837 348.009 170.603 347.362C174.225 345.292 181.384 342.723 185.481 341.213L187.422 330.863C188.069 328.276 190.009 323.101 187.422 324.721C183.54 327.309 176.425 329.896 166.075 333.131C157.665 335.718 149.256 338.306 140.846 345.421C135.671 351.243 120.146 358.359 114.971 360.946C109.796 363.534 102.034 379.706 96.8587 385.528C93.9588 387.461 88.1702 395.533 83 401.65L84.0792 458.56C84.8617 458.16 85.671 457.75 86.5086 457.331C105.268 450.216 111.737 444.394 123.381 437.278C139.553 426.281 159.606 427.575 166.075 428.222C168.662 428.481 173.19 426.281 180.953 424.987C190.009 422.4 189.362 419.166 187.422 414.637C184.857 412.073 179.038 409.101 173.19 407.658C171.664 407.281 170.135 407.009 168.662 406.875Z" fill="#BF835F"/>
<mask id="path-18-inside-2_4_281" fill="white">
<path fill-rule="evenodd" clip-rule="evenodd" d="M237.104 410.551L231.465 409.429L231.739 408.05L237.379 409.172C238.157 409.326 238.911 408.834 239.063 408.072L240.16 402.556L241.57 402.837L240.473 408.352C240.17 409.877 238.661 410.86 237.104 410.551ZM260.061 302.51C260.213 301.746 259.704 301.002 258.926 300.848L253.286 299.726L253.56 298.347L259.2 299.468C260.756 299.778 261.774 301.265 261.47 302.79L260.373 308.306L258.964 308.025L260.061 302.51ZM182.607 396.842L183.704 391.326L185.114 391.607L184.016 397.122C183.865 397.885 184.372 398.628 185.152 398.783L190.791 399.905L190.517 401.284L184.877 400.162C183.321 399.853 182.303 398.367 182.607 396.842ZM205.014 291.56L203.917 297.076L202.507 296.795L203.604 291.28C203.908 289.755 205.417 288.77 206.973 289.08L212.613 290.202L212.338 291.581L206.699 290.459C205.919 290.304 205.166 290.796 205.014 291.56Z"/>
</mask>
<path fill-rule="evenodd" clip-rule="evenodd" d="M237.104 410.551L231.465 409.429L231.739 408.05L237.379 409.172C238.157 409.326 238.911 408.834 239.063 408.072L240.16 402.556L241.57 402.837L240.473 408.352C240.17 409.877 238.661 410.86 237.104 410.551ZM260.061 302.51C260.213 301.746 259.704 301.002 258.926 300.848L253.286 299.726L253.56 298.347L259.2 299.468C260.756 299.778 261.774 301.265 261.47 302.79L260.373 308.306L258.964 308.025L260.061 302.51ZM182.607 396.842L183.704 391.326L185.114 391.607L184.016 397.122C183.865 397.885 184.372 398.628 185.152 398.783L190.791 399.905L190.517 401.284L184.877 400.162C183.321 399.853 182.303 398.367 182.607 396.842ZM205.014 291.56L203.917 297.076L202.507 296.795L203.604 291.28C203.908 289.755 205.417 288.77 206.973 289.08L212.613 290.202L212.338 291.581L206.699 290.459C205.919 290.304 205.166 290.796 205.014 291.56Z" fill="black"/>
<path d="M231.465 409.429L229.956 409.129L229.656 410.637L231.165 410.938L231.465 409.429ZM231.739 408.05L232.039 406.541L230.531 406.241L230.231 407.75L231.739 408.05ZM240.16 402.556L240.46 401.048L238.952 400.748L238.652 402.256L240.16 402.556ZM241.57 402.837L243.079 403.137L243.379 401.628L241.87 401.328L241.57 402.837ZM253.286 299.726L251.777 299.426L251.477 300.934L252.986 301.234L253.286 299.726ZM253.56 298.347L253.86 296.838L252.352 296.538L252.052 298.047L253.56 298.347ZM260.373 308.306L260.073 309.814L261.582 310.114L261.882 308.606L260.373 308.306ZM258.964 308.025L257.455 307.725L257.155 309.234L258.663 309.534L258.964 308.025ZM183.704 391.326L184.004 389.818L182.495 389.518L182.195 391.026L183.704 391.326ZM185.114 391.607L186.622 391.907L186.922 390.398L185.414 390.098L185.114 391.607ZM190.791 399.905L192.3 400.205L192.6 398.696L191.091 398.396L190.791 399.905ZM190.517 401.284L190.217 402.793L191.725 403.093L192.026 401.584L190.517 401.284ZM203.917 297.076L203.617 298.584L205.125 298.884L205.426 297.376L203.917 297.076ZM202.507 296.795L200.999 296.495L200.698 298.004L202.207 298.304L202.507 296.795ZM212.613 290.202L214.121 290.502L214.421 288.993L212.913 288.693L212.613 290.202ZM212.338 291.581L212.038 293.089L213.547 293.389L213.847 291.881L212.338 291.581ZM237.404 409.042L231.765 407.92L231.165 410.938L236.804 412.059L237.404 409.042ZM232.973 409.729L233.248 408.35L230.231 407.75L229.956 409.129L232.973 409.729ZM231.439 409.558L237.079 410.68L237.679 407.663L232.039 406.541L231.439 409.558ZM237.079 410.68C238.659 410.995 240.248 409.998 240.572 408.372L237.555 407.771C237.564 407.726 237.592 407.693 237.615 407.678C237.637 407.663 237.662 407.66 237.679 407.663L237.079 410.68ZM240.572 408.372L241.669 402.856L238.652 402.256L237.555 407.771L240.572 408.372ZM239.86 404.065L241.27 404.345L241.87 401.328L240.46 401.048L239.86 404.065ZM240.061 402.537L238.964 408.052L241.981 408.652L243.079 403.137L240.061 402.537ZM238.964 408.052C238.833 408.713 238.159 409.192 237.404 409.042L236.804 412.059C239.162 412.528 241.506 411.042 241.981 408.652L238.964 408.052ZM261.569 302.81C261.893 301.183 260.807 299.654 259.226 299.339L258.625 302.356C258.609 302.353 258.587 302.34 258.572 302.318C258.556 302.295 258.543 302.254 258.552 302.21L261.569 302.81ZM259.226 299.339L253.586 298.217L252.986 301.234L258.625 302.356L259.226 299.339ZM254.795 300.026L255.069 298.647L252.052 298.047L251.777 299.426L254.795 300.026ZM253.26 299.855L258.9 300.977L259.5 297.96L253.86 296.838L253.26 299.855ZM258.9 300.977C259.654 301.127 260.094 301.828 259.962 302.49L262.979 303.09C263.454 300.702 261.859 298.429 259.5 297.96L258.9 300.977ZM259.962 302.49L258.865 308.006L261.882 308.606L262.979 303.09L259.962 302.49ZM260.673 306.797L259.264 306.517L258.663 309.534L260.073 309.814L260.673 306.797ZM260.472 308.325L261.569 302.81L258.552 302.21L257.455 307.725L260.472 308.325ZM184.115 397.142L185.212 391.627L182.195 391.026L181.098 396.542L184.115 397.142ZM183.404 392.835L184.813 393.115L185.414 390.098L184.004 389.818L183.404 392.835ZM183.605 391.307L182.508 396.822L185.525 397.422L186.622 391.907L183.605 391.307ZM182.508 396.822C182.185 398.447 183.268 399.977 184.852 400.292L185.452 397.274C185.467 397.278 185.489 397.29 185.505 397.313C185.521 397.336 185.534 397.378 185.525 397.422L182.508 396.822ZM184.852 400.292L190.491 401.413L191.091 398.396L185.452 397.274L184.852 400.292ZM189.283 399.605L189.008 400.984L192.026 401.584L192.3 400.205L189.283 399.605ZM190.817 399.775L185.178 398.654L184.577 401.671L190.217 402.793L190.817 399.775ZM185.178 398.654C184.423 398.503 183.984 397.803 184.115 397.142L181.098 396.542C180.623 398.931 182.219 401.202 184.577 401.671L185.178 398.654ZM203.505 291.26L202.408 296.776L205.426 297.376L206.523 291.861L203.505 291.26ZM204.217 295.567L202.807 295.287L202.207 298.304L203.617 298.584L204.217 295.567ZM204.016 297.095L205.113 291.58L202.096 290.98L200.999 296.495L204.016 297.095ZM205.113 291.58C205.244 290.918 205.919 290.439 206.673 290.588L207.273 287.571C204.914 287.102 202.571 288.591 202.096 290.98L205.113 291.58ZM206.673 290.588L212.313 291.71L212.913 288.693L207.273 287.571L206.673 290.588ZM211.104 289.902L210.83 291.281L213.847 291.881L214.121 290.502L211.104 289.902ZM212.638 290.072L206.999 288.951L206.399 291.968L212.038 293.089L212.638 290.072ZM206.999 288.951C205.415 288.635 203.829 289.635 203.505 291.26L206.523 291.861C206.514 291.904 206.487 291.937 206.463 291.952C206.439 291.968 206.414 291.971 206.399 291.968L206.999 288.951Z" fill="black" mask="url(#path-18-inside-2_4_281)"/>
</g>
<path fill-rule="evenodd" clip-rule="evenodd" d="M131.057 131C116.666 131 105 142.666 105 157.057L105 495.803C105 510.194 116.666 521.861 131.057 521.861H265.943C280.334 521.861 292 510.194 292 495.803V157.057C292 142.666 280.334 131 265.943 131H131.057ZM134.122 137.131C122.271 137.131 112.663 146.739 112.663 158.59L112.663 492.737C112.663 504.589 122.271 514.197 134.122 514.197H262.876C274.728 514.197 284.335 504.589 284.335 492.737V158.59C284.335 146.739 274.728 137.131 262.876 137.131H134.122Z" fill="black"/>
</g>
<defs>
<filter id="filter0_d_4_281" x="0" y="0" width="398" height="852" filterUnits="userSpaceOnUse" color-interpolation-filters="sRGB">
<feFlood flood-opacity="0" result="BackgroundImageFix"/>
<feColorMatrix in="SourceAlpha" type="matrix" values="0 0 0 0 0 0 0 0 0 0 0 0 0 0 0 0 0 0 127 0" result="hardAlpha"/>
<feOffset dy="4"/>
<feGaussianBlur stdDeviation="2"/>
<feComposite in2="hardAlpha" operator="out"/>
<feColorMatrix type="matrix" values="0 0 0 0 0 0 0 0 0 0 0 0 0 0 0 0 0 0 0.25 0"/>
<feBlend mode="normal" in2="BackgroundImageFix" result="effect1_dropShadow_4_281"/>
<feBlend mode="normal" in="SourceGraphic" in2="effect1_dropShadow_4_281" result="shape"/>
</filter>
<clipPath id="clip0_4_281">
<rect x="108" y="131" width="180" height="390" rx="23" fill="white"/>
</clipPath>
</defs>
</svg>
