<svg width="398" height="852" viewBox="0 0 398 852" fill="none" xmlns="http://www.w3.org/2000/svg">
<g clip-path="url(#clip0_4_228)" filter="url(#filter0_d_4_228)">
<rect width="390" height="844" transform="translate(4)" fill="white"/>
<g filter="url(#filter1_d_4_228)">
<path d="M166.157 605.358C174.485 594.255 187.438 607.209 187.623 608.504C190.214 605.42 197.505 599.215 205.943 599.067C217.231 598.326 215.196 585.188 222.413 585.003C230.555 584.818 249.615 593.515 236.847 613.871C224.633 634.226 239.067 620.532 244.619 622.568C250.17 624.604 255.907 646.995 234.626 654.212C216.306 661.429 236.847 667.535 249.615 668.276C264.234 672.161 226.299 686.78 222.413 696.588C219.008 704.286 221.241 711.515 222.783 714.168L191.509 714.908C190.769 701.399 173.005 705.285 166.528 691.962C160.606 672.902 185.958 657.357 167.268 663.464C142.286 675.862 144.877 652.361 147.838 644.219C153.019 634.596 168.193 637.002 156.72 626.269C145.247 615.536 160.791 612.39 166.157 605.358Z" fill="#01261F" stroke="black" stroke-width="0.370101"/>
<path d="M219.71 613.906C216.337 623.541 207.28 643.1 198.03 644.257M219.71 671.717C215.856 674.126 206.702 682.412 200.921 696.287M182.132 635.585C178.278 637.512 170.281 642.811 169.125 648.592" stroke="#1B2E40" stroke-width="2.89056" stroke-linecap="round" stroke-linejoin="round"/>
<path d="M237.589 789.342C238.922 785.937 236.171 785.209 234.629 785.271C223.526 779.941 185.344 781.446 167.64 782.865C168.011 783.975 169.121 786.825 170.601 789.342C170.046 793.413 170.971 795.078 171.156 796.559C171.156 798.039 169.121 809.697 166.9 817.469C164.828 823.539 160.485 844.795 158.573 854.665H186.515C186.515 852.814 189.106 838.38 189.847 834.124C190.587 830.053 193.918 816.359 194.843 809.142C196.878 799.52 215.938 796.189 218.159 795.078C220.195 794.153 228.152 795.634 229.447 793.783C230.742 792.118 235.369 791.007 237.589 789.342Z" fill="#CC9A7B"/>
<path d="M243.201 738.247C243.201 733.855 244.315 708.965 243.201 708.233C226.007 706.586 159.431 708.05 158.691 709.515C157.952 710.979 160.907 765.882 161.276 774.484C161.644 783.033 165.3 784.17 171.699 786.16L171.818 786.196C187.689 789.301 208.533 788.032 220.565 787.299L220.639 787.295C235.249 787.112 240.587 781.438 241.356 779.059C242.835 774.484 243.201 742.64 243.201 738.247Z" fill="white"/>
</g>
<path d="M99 323.5C99 319.358 102.358 316 106.5 316H298C298 324.284 291.284 331 283 331H106.5C102.358 331 99 327.642 99 323.5Z" fill="#205950"/>
<path d="M97.5099 215V191.727H105.805C107.608 191.727 109.105 192.038 110.294 192.659C111.491 193.28 112.385 194.14 112.976 195.239C113.567 196.33 113.862 197.591 113.862 199.023C113.862 200.447 113.563 201.701 112.964 202.784C112.374 203.86 111.48 204.697 110.283 205.295C109.093 205.894 107.597 206.193 105.794 206.193H99.5099V203.17H105.476C106.612 203.17 107.536 203.008 108.249 202.682C108.968 202.356 109.495 201.883 109.828 201.261C110.161 200.64 110.328 199.894 110.328 199.023C110.328 198.144 110.158 197.383 109.817 196.739C109.483 196.095 108.957 195.602 108.237 195.261C107.525 194.913 106.589 194.739 105.43 194.739H101.021V215H97.5099ZM108.999 204.5L114.749 215H110.749L105.112 204.5H108.999ZM124.996 215.352C123.359 215.352 121.931 214.977 120.712 214.227C119.492 213.477 118.545 212.428 117.871 211.08C117.196 209.731 116.859 208.155 116.859 206.352C116.859 204.542 117.196 202.958 117.871 201.602C118.545 200.246 119.492 199.193 120.712 198.443C121.931 197.693 123.359 197.318 124.996 197.318C126.632 197.318 128.06 197.693 129.28 198.443C130.5 199.193 131.446 200.246 132.121 201.602C132.795 202.958 133.132 204.542 133.132 206.352C133.132 208.155 132.795 209.731 132.121 211.08C131.446 212.428 130.5 213.477 129.28 214.227C128.06 214.977 126.632 215.352 124.996 215.352ZM125.007 212.5C126.068 212.5 126.946 212.22 127.643 211.659C128.34 211.098 128.856 210.352 129.189 209.42C129.53 208.489 129.7 207.462 129.7 206.341C129.7 205.227 129.53 204.205 129.189 203.273C128.856 202.333 128.34 201.58 127.643 201.011C126.946 200.443 126.068 200.159 125.007 200.159C123.939 200.159 123.053 200.443 122.348 201.011C121.651 201.58 121.132 202.333 120.791 203.273C120.458 204.205 120.291 205.227 120.291 206.341C120.291 207.462 120.458 208.489 120.791 209.42C121.132 210.352 121.651 211.098 122.348 211.659C123.053 212.22 123.939 212.5 125.007 212.5ZM150.004 201.807L146.925 202.352C146.796 201.958 146.591 201.583 146.311 201.227C146.038 200.871 145.667 200.58 145.197 200.352C144.728 200.125 144.141 200.011 143.436 200.011C142.474 200.011 141.671 200.227 141.027 200.659C140.383 201.083 140.061 201.633 140.061 202.307C140.061 202.89 140.277 203.36 140.709 203.716C141.141 204.072 141.838 204.364 142.8 204.591L145.572 205.227C147.179 205.598 148.375 206.17 149.163 206.943C149.951 207.716 150.345 208.72 150.345 209.955C150.345 211 150.042 211.932 149.436 212.75C148.838 213.561 148 214.197 146.925 214.659C145.857 215.121 144.618 215.352 143.209 215.352C141.254 215.352 139.66 214.936 138.425 214.102C137.19 213.261 136.432 212.068 136.152 210.523L139.436 210.023C139.641 210.879 140.061 211.527 140.697 211.966C141.334 212.398 142.163 212.614 143.186 212.614C144.3 212.614 145.19 212.383 145.857 211.92C146.523 211.451 146.857 210.879 146.857 210.205C146.857 209.659 146.652 209.201 146.243 208.83C145.841 208.458 145.224 208.178 144.391 207.989L141.436 207.341C139.807 206.97 138.603 206.379 137.822 205.568C137.05 204.758 136.663 203.731 136.663 202.489C136.663 201.458 136.951 200.557 137.527 199.784C138.103 199.011 138.898 198.409 139.913 197.977C140.929 197.538 142.091 197.318 143.402 197.318C145.288 197.318 146.773 197.727 147.857 198.545C148.94 199.356 149.656 200.443 150.004 201.807ZM162.229 197.545V200.273H152.695V197.545H162.229ZM155.251 193.364H158.649V209.875C158.649 210.534 158.748 211.03 158.945 211.364C159.142 211.689 159.395 211.913 159.706 212.034C160.024 212.148 160.369 212.205 160.74 212.205C161.013 212.205 161.251 212.186 161.456 212.148C161.661 212.11 161.82 212.08 161.933 212.057L162.547 214.864C162.35 214.939 162.07 215.015 161.706 215.091C161.342 215.174 160.888 215.22 160.342 215.227C159.448 215.242 158.615 215.083 157.842 214.75C157.07 214.417 156.445 213.902 155.967 213.205C155.49 212.508 155.251 211.633 155.251 210.58V193.364ZM169.76 191.727V215H166.362V191.727H169.76ZM174.331 215V197.545H177.729V215H174.331ZM176.047 194.852C175.456 194.852 174.948 194.655 174.524 194.261C174.107 193.86 173.899 193.383 173.899 192.83C173.899 192.269 174.107 191.792 174.524 191.398C174.948 190.996 175.456 190.795 176.047 190.795C176.638 190.795 177.142 190.996 177.558 191.398C177.982 191.792 178.195 192.269 178.195 192.83C178.195 193.383 177.982 193.86 177.558 194.261C177.142 194.655 176.638 194.852 176.047 194.852ZM185.697 204.636V215H182.3V197.545H185.561V200.386H185.777C186.179 199.462 186.807 198.72 187.663 198.159C188.527 197.598 189.614 197.318 190.925 197.318C192.114 197.318 193.156 197.568 194.05 198.068C194.944 198.561 195.637 199.295 196.129 200.273C196.622 201.25 196.868 202.458 196.868 203.898V215H193.47V204.307C193.47 203.042 193.141 202.053 192.482 201.341C191.822 200.621 190.917 200.261 189.766 200.261C188.978 200.261 188.277 200.432 187.663 200.773C187.057 201.114 186.576 201.614 186.22 202.273C185.872 202.924 185.697 203.712 185.697 204.636ZM206.504 215.386C205.398 215.386 204.398 215.182 203.504 214.773C202.61 214.356 201.902 213.754 201.379 212.966C200.864 212.178 200.607 211.212 200.607 210.068C200.607 209.083 200.796 208.273 201.175 207.636C201.554 207 202.065 206.496 202.709 206.125C203.353 205.754 204.072 205.473 204.868 205.284C205.663 205.095 206.474 204.951 207.3 204.852C208.345 204.731 209.194 204.633 209.845 204.557C210.497 204.473 210.97 204.341 211.266 204.159C211.561 203.977 211.709 203.682 211.709 203.273V203.193C211.709 202.201 211.429 201.432 210.868 200.886C210.315 200.341 209.489 200.068 208.391 200.068C207.247 200.068 206.345 200.322 205.686 200.83C205.035 201.33 204.584 201.886 204.334 202.5L201.141 201.773C201.519 200.712 202.072 199.856 202.8 199.205C203.535 198.545 204.379 198.068 205.334 197.773C206.288 197.47 207.292 197.318 208.345 197.318C209.042 197.318 209.781 197.402 210.561 197.568C211.349 197.727 212.084 198.023 212.766 198.455C213.455 198.886 214.019 199.504 214.459 200.307C214.898 201.102 215.118 202.136 215.118 203.409V215H211.8V212.614H211.663C211.444 213.053 211.114 213.485 210.675 213.909C210.235 214.333 209.671 214.686 208.982 214.966C208.292 215.246 207.466 215.386 206.504 215.386ZM207.243 212.659C208.182 212.659 208.985 212.473 209.652 212.102C210.326 211.731 210.838 211.246 211.186 210.648C211.542 210.042 211.72 209.394 211.72 208.705V206.455C211.599 206.576 211.364 206.689 211.016 206.795C210.675 206.894 210.285 206.981 209.845 207.057C209.406 207.125 208.978 207.189 208.561 207.25C208.144 207.303 207.796 207.348 207.516 207.386C206.857 207.47 206.254 207.61 205.709 207.807C205.171 208.004 204.739 208.288 204.413 208.659C204.095 209.023 203.936 209.508 203.936 210.114C203.936 210.955 204.247 211.591 204.868 212.023C205.489 212.447 206.281 212.659 207.243 212.659ZM231.51 204.636V215H228.112V197.545H231.374V200.386H231.589C231.991 199.462 232.62 198.72 233.476 198.159C234.339 197.598 235.427 197.318 236.737 197.318C237.927 197.318 238.968 197.568 239.862 198.068C240.756 198.561 241.449 199.295 241.942 200.273C242.434 201.25 242.68 202.458 242.68 203.898V215H239.283V204.307C239.283 203.042 238.953 202.053 238.294 201.341C237.635 200.621 236.73 200.261 235.578 200.261C234.79 200.261 234.089 200.432 233.476 200.773C232.87 201.114 232.389 201.614 232.033 202.273C231.684 202.924 231.51 203.712 231.51 204.636ZM254.76 215.352C253.04 215.352 251.559 214.985 250.317 214.25C249.082 213.508 248.127 212.466 247.453 211.125C246.786 209.777 246.453 208.197 246.453 206.386C246.453 204.598 246.786 203.023 247.453 201.659C248.127 200.295 249.067 199.231 250.271 198.466C251.483 197.701 252.9 197.318 254.521 197.318C255.506 197.318 256.461 197.481 257.385 197.807C258.309 198.133 259.139 198.644 259.874 199.341C260.608 200.038 261.188 200.943 261.612 202.057C262.036 203.163 262.249 204.508 262.249 206.091V207.295H248.374V204.75H258.919C258.919 203.856 258.737 203.064 258.374 202.375C258.01 201.678 257.499 201.129 256.839 200.727C256.188 200.326 255.423 200.125 254.544 200.125C253.589 200.125 252.756 200.36 252.044 200.83C251.339 201.292 250.794 201.898 250.408 202.648C250.029 203.39 249.839 204.197 249.839 205.068V207.057C249.839 208.223 250.044 209.216 250.453 210.034C250.87 210.852 251.449 211.477 252.192 211.909C252.934 212.333 253.802 212.545 254.794 212.545C255.438 212.545 256.025 212.455 256.555 212.273C257.086 212.083 257.544 211.803 257.93 211.432C258.317 211.061 258.612 210.602 258.817 210.057L262.033 210.636C261.775 211.583 261.313 212.413 260.646 213.125C259.987 213.83 259.158 214.379 258.158 214.773C257.165 215.159 256.033 215.352 254.76 215.352ZM266.291 215V191.727H269.689V200.375H269.893C270.09 200.011 270.375 199.591 270.746 199.114C271.117 198.636 271.632 198.22 272.291 197.864C272.95 197.5 273.821 197.318 274.905 197.318C276.314 197.318 277.571 197.674 278.678 198.386C279.784 199.098 280.651 200.125 281.28 201.466C281.916 202.807 282.234 204.42 282.234 206.307C282.234 208.193 281.92 209.811 281.291 211.159C280.662 212.5 279.799 213.534 278.7 214.261C277.602 214.981 276.348 215.341 274.939 215.341C273.878 215.341 273.011 215.163 272.337 214.807C271.67 214.451 271.147 214.034 270.768 213.557C270.39 213.08 270.098 212.655 269.893 212.284H269.609V215H266.291ZM269.621 206.273C269.621 207.5 269.799 208.576 270.155 209.5C270.511 210.424 271.026 211.148 271.7 211.67C272.375 212.186 273.2 212.443 274.178 212.443C275.193 212.443 276.041 212.174 276.723 211.636C277.405 211.091 277.92 210.352 278.268 209.42C278.625 208.489 278.803 207.439 278.803 206.273C278.803 205.121 278.628 204.087 278.28 203.17C277.939 202.254 277.424 201.53 276.734 201C276.053 200.47 275.2 200.205 274.178 200.205C273.193 200.205 272.359 200.458 271.678 200.966C271.003 201.473 270.492 202.182 270.143 203.091C269.795 204 269.621 205.061 269.621 206.273ZM293.402 215.352C291.766 215.352 290.338 214.977 289.118 214.227C287.898 213.477 286.951 212.428 286.277 211.08C285.603 209.731 285.266 208.155 285.266 206.352C285.266 204.542 285.603 202.958 286.277 201.602C286.951 200.246 287.898 199.193 289.118 198.443C290.338 197.693 291.766 197.318 293.402 197.318C295.038 197.318 296.466 197.693 297.686 198.443C298.906 199.193 299.853 200.246 300.527 201.602C301.201 202.958 301.538 204.542 301.538 206.352C301.538 208.155 301.201 209.731 300.527 211.08C299.853 212.428 298.906 213.477 297.686 214.227C296.466 214.977 295.038 215.352 293.402 215.352ZM293.413 212.5C294.474 212.5 295.353 212.22 296.05 211.659C296.747 211.098 297.262 210.352 297.595 209.42C297.936 208.489 298.107 207.462 298.107 206.341C298.107 205.227 297.936 204.205 297.595 203.273C297.262 202.333 296.747 201.58 296.05 201.011C295.353 200.443 294.474 200.159 293.413 200.159C292.345 200.159 291.459 200.443 290.754 201.011C290.057 201.58 289.538 202.333 289.197 203.273C288.864 204.205 288.697 205.227 288.697 206.341C288.697 207.462 288.864 208.489 289.197 209.42C289.538 210.352 290.057 211.098 290.754 211.659C291.459 212.22 292.345 212.5 293.413 212.5ZM136.05 248.08L136.027 243.932H136.618L143.572 236.545H147.641L139.709 244.955H139.175L136.05 248.08ZM132.925 254V230.727H136.322V254H132.925ZM143.947 254L137.697 245.705L140.038 243.33L148.118 254H143.947ZM165.763 236.545L159.433 254H155.797L149.456 236.545H153.104L157.524 249.977H157.706L162.115 236.545H165.763ZM175.885 254.352C174.165 254.352 172.684 253.985 171.442 253.25C170.207 252.508 169.252 251.466 168.578 250.125C167.911 248.777 167.578 247.197 167.578 245.386C167.578 243.598 167.911 242.023 168.578 240.659C169.252 239.295 170.192 238.231 171.396 237.466C172.608 236.701 174.025 236.318 175.646 236.318C176.631 236.318 177.586 236.481 178.51 236.807C179.434 237.133 180.264 237.644 180.999 238.341C181.733 239.038 182.313 239.943 182.737 241.057C183.161 242.163 183.374 243.508 183.374 245.091V246.295H169.499V243.75H180.044C180.044 242.856 179.862 242.064 179.499 241.375C179.135 240.678 178.624 240.129 177.964 239.727C177.313 239.326 176.548 239.125 175.669 239.125C174.714 239.125 173.881 239.36 173.169 239.83C172.464 240.292 171.919 240.898 171.533 241.648C171.154 242.39 170.964 243.197 170.964 244.068V246.057C170.964 247.223 171.169 248.216 171.578 249.034C171.995 249.852 172.574 250.477 173.317 250.909C174.059 251.333 174.927 251.545 175.919 251.545C176.563 251.545 177.15 251.455 177.68 251.273C178.211 251.083 178.669 250.803 179.055 250.432C179.442 250.061 179.737 249.602 179.942 249.057L183.158 249.636C182.9 250.583 182.438 251.413 181.771 252.125C181.112 252.83 180.283 253.379 179.283 253.773C178.29 254.159 177.158 254.352 175.885 254.352ZM173.18 229.466L175.521 232.511L177.851 229.466H180.93V229.636L176.93 234.455H174.101L170.112 229.636V229.466H173.18ZM195.291 236.545V239.273H185.757V236.545H195.291ZM188.314 232.364H191.712V248.875C191.712 249.534 191.81 250.03 192.007 250.364C192.204 250.689 192.458 250.913 192.768 251.034C193.087 251.148 193.431 251.205 193.803 251.205C194.075 251.205 194.314 251.186 194.518 251.148C194.723 251.11 194.882 251.08 194.996 251.057L195.609 253.864C195.412 253.939 195.132 254.015 194.768 254.091C194.405 254.174 193.95 254.22 193.405 254.227C192.511 254.242 191.678 254.083 190.905 253.75C190.132 253.417 189.507 252.902 189.03 252.205C188.553 251.508 188.314 250.633 188.314 249.58V232.364ZM199.05 254V236.545H202.447V254H199.05ZM200.766 233.852C200.175 233.852 199.667 233.655 199.243 233.261C198.826 232.86 198.618 232.383 198.618 231.83C198.618 231.269 198.826 230.792 199.243 230.398C199.667 229.996 200.175 229.795 200.766 229.795C201.357 229.795 201.86 229.996 202.277 230.398C202.701 230.792 202.913 231.269 202.913 231.83C202.913 232.383 202.701 232.86 202.277 233.261C201.86 233.655 201.357 233.852 200.766 233.852ZM210.416 243.636V254H207.018V236.545H210.28V239.386H210.496C210.897 238.462 211.526 237.72 212.382 237.159C213.246 236.598 214.333 236.318 215.643 236.318C216.833 236.318 217.875 236.568 218.768 237.068C219.662 237.561 220.356 238.295 220.848 239.273C221.34 240.25 221.587 241.458 221.587 242.898V254H218.189V243.307C218.189 242.042 217.859 241.053 217.2 240.341C216.541 239.621 215.636 239.261 214.484 239.261C213.696 239.261 212.996 239.432 212.382 239.773C211.776 240.114 211.295 240.614 210.939 241.273C210.59 241.924 210.416 242.712 210.416 243.636ZM231.223 254.386C230.117 254.386 229.117 254.182 228.223 253.773C227.329 253.356 226.621 252.754 226.098 251.966C225.583 251.178 225.325 250.212 225.325 249.068C225.325 248.083 225.515 247.273 225.893 246.636C226.272 246 226.784 245.496 227.428 245.125C228.071 244.754 228.791 244.473 229.587 244.284C230.382 244.095 231.193 243.951 232.018 243.852C233.064 243.731 233.912 243.633 234.564 243.557C235.215 243.473 235.689 243.341 235.984 243.159C236.28 242.977 236.428 242.682 236.428 242.273V242.193C236.428 241.201 236.147 240.432 235.587 239.886C235.034 239.341 234.208 239.068 233.109 239.068C231.965 239.068 231.064 239.322 230.405 239.83C229.753 240.33 229.303 240.886 229.053 241.5L225.859 240.773C226.238 239.712 226.791 238.856 227.518 238.205C228.253 237.545 229.098 237.068 230.053 236.773C231.007 236.47 232.011 236.318 233.064 236.318C233.761 236.318 234.5 236.402 235.28 236.568C236.068 236.727 236.803 237.023 237.484 237.455C238.174 237.886 238.738 238.504 239.178 239.307C239.617 240.102 239.837 241.136 239.837 242.409V254H236.518V251.614H236.382C236.162 252.053 235.833 252.485 235.393 252.909C234.954 253.333 234.39 253.686 233.7 253.966C233.011 254.246 232.185 254.386 231.223 254.386ZM231.962 251.659C232.901 251.659 233.704 251.473 234.371 251.102C235.045 250.731 235.556 250.246 235.905 249.648C236.261 249.042 236.439 248.394 236.439 247.705V245.455C236.318 245.576 236.083 245.689 235.734 245.795C235.393 245.894 235.003 245.981 234.564 246.057C234.125 246.125 233.696 246.189 233.28 246.25C232.863 246.303 232.515 246.348 232.234 246.386C231.575 246.47 230.973 246.61 230.428 246.807C229.89 247.004 229.458 247.288 229.132 247.659C228.814 248.023 228.655 248.508 228.655 249.114C228.655 249.955 228.965 250.591 229.587 251.023C230.208 251.447 231 251.659 231.962 251.659ZM256.547 247.307V247.091C256.562 245.682 256.702 244.561 256.967 243.727C257.24 242.894 257.626 242.22 258.126 241.705C258.626 241.189 259.229 240.72 259.933 240.295C260.388 240.008 260.797 239.686 261.161 239.33C261.524 238.973 261.812 238.564 262.024 238.102C262.236 237.64 262.342 237.129 262.342 236.568C262.342 235.894 262.183 235.311 261.865 234.818C261.547 234.326 261.123 233.947 260.592 233.682C260.07 233.409 259.486 233.273 258.842 233.273C258.259 233.273 257.702 233.394 257.172 233.636C256.642 233.879 256.202 234.258 255.854 234.773C255.505 235.28 255.304 235.936 255.251 236.739H251.797C251.85 235.375 252.195 234.223 252.831 233.284C253.467 232.337 254.308 231.621 255.354 231.136C256.407 230.652 257.57 230.409 258.842 230.409C260.236 230.409 261.456 230.67 262.501 231.193C263.547 231.708 264.357 232.432 264.933 233.364C265.517 234.288 265.808 235.367 265.808 236.602C265.808 237.451 265.676 238.216 265.411 238.898C265.145 239.572 264.767 240.174 264.274 240.705C263.789 241.235 263.206 241.705 262.524 242.114C261.88 242.515 261.357 242.932 260.956 243.364C260.562 243.795 260.274 244.307 260.092 244.898C259.911 245.489 259.812 246.22 259.797 247.091V247.307H256.547ZM258.263 254.216C257.642 254.216 257.107 253.996 256.661 253.557C256.214 253.11 255.99 252.572 255.99 251.943C255.99 251.322 256.214 250.792 256.661 250.352C257.107 249.905 257.642 249.682 258.263 249.682C258.876 249.682 259.407 249.905 259.854 250.352C260.308 250.792 260.536 251.322 260.536 251.943C260.536 252.36 260.429 252.742 260.217 253.091C260.013 253.432 259.74 253.705 259.399 253.909C259.058 254.114 258.679 254.216 258.263 254.216Z" fill="black"/>
<path d="M53.9602 79V77.8352L58.6875 71.8295V71.75H54.1136V70.2727H60.8068V71.5114L56.2614 77.4432V77.5227H60.9659V79H53.9602ZM62.9702 82.2727V70.2727H64.6293V71.6875H64.7713C64.8698 71.5057 65.0118 71.2955 65.1974 71.0568C65.383 70.8182 65.6406 70.6098 65.9702 70.4318C66.2997 70.25 66.7353 70.1591 67.277 70.1591C67.9815 70.1591 68.6103 70.3371 69.1634 70.6932C69.7164 71.0492 70.1501 71.5625 70.4645 72.233C70.7827 72.9034 70.9418 73.7102 70.9418 74.6534C70.9418 75.5966 70.7846 76.4053 70.4702 77.0795C70.1558 77.75 69.724 78.267 69.1747 78.6307C68.6255 78.9905 67.9986 79.1705 67.294 79.1705C66.7637 79.1705 66.33 79.0814 65.9929 78.9034C65.6596 78.7254 65.3982 78.517 65.2088 78.2784C65.0194 78.0398 64.8736 77.8277 64.7713 77.642H64.669V82.2727H62.9702ZM64.6349 74.6364C64.6349 75.25 64.724 75.7879 64.902 76.25C65.08 76.7121 65.3376 77.0739 65.6747 77.3352C66.0118 77.5928 66.4247 77.7216 66.9134 77.7216C67.4209 77.7216 67.8452 77.5871 68.1861 77.3182C68.527 77.0455 68.7846 76.6761 68.9588 76.2102C69.1368 75.7443 69.2259 75.2197 69.2259 74.6364C69.2259 74.0606 69.1387 73.5436 68.9645 73.0852C68.794 72.6269 68.5365 72.2652 68.1918 72C67.8509 71.7348 67.4247 71.6023 66.9134 71.6023C66.4209 71.6023 66.0043 71.7292 65.6634 71.983C65.3262 72.2367 65.0705 72.5909 64.8963 73.0455C64.7221 73.5 64.6349 74.0303 64.6349 74.6364ZM76.6065 79.1761C75.7467 79.1761 75.0062 78.9924 74.3849 78.625C73.7675 78.2538 73.2902 77.733 72.9531 77.0625C72.6198 76.3883 72.4531 75.5985 72.4531 74.6932C72.4531 73.7992 72.6198 73.0114 72.9531 72.3295C73.2902 71.6477 73.7599 71.1155 74.3622 70.733C74.9683 70.3504 75.6766 70.1591 76.4872 70.1591C76.9796 70.1591 77.4569 70.2405 77.919 70.4034C78.3812 70.5663 78.7959 70.822 79.1634 71.1705C79.5308 71.5189 79.8205 71.9716 80.0327 72.5284C80.2448 73.0814 80.3509 73.7538 80.3509 74.5455V75.1477H73.4134V73.875H78.6861C78.6861 73.428 78.5952 73.0322 78.4134 72.6875C78.2315 72.339 77.9759 72.0644 77.6463 71.8636C77.3205 71.6629 76.938 71.5625 76.4986 71.5625C76.0213 71.5625 75.6046 71.6799 75.2486 71.9148C74.8963 72.1458 74.6236 72.4489 74.4304 72.8239C74.241 73.1951 74.1463 73.5985 74.1463 74.0341V75.0284C74.1463 75.6117 74.2486 76.108 74.4531 76.517C74.6615 76.9261 74.9512 77.2386 75.3224 77.4545C75.6937 77.6667 76.1274 77.7727 76.6236 77.7727C76.9455 77.7727 77.2391 77.7273 77.5043 77.6364C77.7694 77.5417 77.9986 77.4015 78.1918 77.2159C78.3849 77.0303 78.5327 76.8011 78.6349 76.5284L80.2429 76.8182C80.1141 77.2917 79.883 77.7064 79.5497 78.0625C79.2202 78.4148 78.8054 78.6894 78.3054 78.8864C77.8092 79.0795 77.2429 79.1761 76.6065 79.1761ZM75.2543 66.733L76.4247 68.2557L77.5895 66.733H79.1293V66.8182L77.1293 69.2273H75.7145L73.7202 66.8182V66.733H75.2543ZM86.3097 70.2727V71.6364H81.5426V70.2727H86.3097ZM82.821 68.1818H84.5199V76.4375C84.5199 76.767 84.5691 77.0152 84.6676 77.1818C84.7661 77.3447 84.893 77.4564 85.0483 77.517C85.2074 77.5739 85.3797 77.6023 85.5653 77.6023C85.7017 77.6023 85.821 77.5928 85.9233 77.5739C86.0256 77.5549 86.1051 77.5398 86.1619 77.5284L86.4688 78.9318C86.3703 78.9697 86.2301 79.0076 86.0483 79.0455C85.8665 79.0871 85.6392 79.1098 85.3665 79.1136C84.9195 79.1212 84.5028 79.0417 84.1165 78.875C83.7301 78.7083 83.4176 78.4508 83.179 78.1023C82.9403 77.7538 82.821 77.3163 82.821 76.7898V68.1818Z" fill="black"/>
<path d="M31.6464 74.6464C31.4512 74.8417 31.4512 75.1583 31.6464 75.3536L34.8284 78.5355C35.0237 78.7308 35.3403 78.7308 35.5355 78.5355C35.7308 78.3403 35.7308 78.0237 35.5355 77.8284L32.7071 75L35.5355 72.1716C35.7308 71.9763 35.7308 71.6597 35.5355 71.4645C35.3403 71.2692 35.0237 71.2692 34.8284 71.4645L31.6464 74.6464ZM47 74.5H32V75.5H47V74.5Z" fill="black"/>
<path d="M102 394C102 385.163 109.163 378 118 378H296V400C296 408.837 288.837 416 280 416H118C109.163 416 102 408.837 102 400V394Z" fill="#D9D9D9"/>
<path d="M102 444C102 435.163 109.163 428 118 428H280C288.837 428 296 435.163 296 444V450C296 458.837 288.837 466 280 466H102V444Z" fill="#D9D9D9"/>
<path d="M168.846 404V389.455H174.031C175.158 389.455 176.093 389.649 176.836 390.037C177.584 390.425 178.143 390.963 178.512 391.649C178.882 392.331 179.066 393.119 179.066 394.014C179.066 394.904 178.879 395.688 178.505 396.365C178.136 397.037 177.577 397.561 176.829 397.935C176.086 398.309 175.151 398.496 174.024 398.496H170.096V396.607H173.825C174.535 396.607 175.113 396.505 175.558 396.301C176.008 396.098 176.337 395.802 176.545 395.413C176.753 395.025 176.857 394.559 176.857 394.014C176.857 393.465 176.751 392.989 176.538 392.587C176.329 392.184 176 391.876 175.551 391.663C175.106 391.446 174.521 391.337 173.796 391.337H171.041V404H168.846ZM176.026 397.438L179.62 404H177.12L173.597 397.438H176.026ZM186.025 404.22C185.002 404.22 184.109 403.986 183.347 403.517C182.585 403.048 181.993 402.393 181.572 401.55C181.15 400.707 180.939 399.722 180.939 398.595C180.939 397.464 181.15 396.474 181.572 395.626C181.993 394.779 182.585 394.121 183.347 393.652C184.109 393.183 185.002 392.949 186.025 392.949C187.047 392.949 187.94 393.183 188.702 393.652C189.465 394.121 190.056 394.779 190.478 395.626C190.899 396.474 191.11 397.464 191.11 398.595C191.11 399.722 190.899 400.707 190.478 401.55C190.056 402.393 189.465 403.048 188.702 403.517C187.94 403.986 187.047 404.22 186.025 404.22ZM186.032 402.438C186.695 402.438 187.244 402.262 187.68 401.912C188.115 401.562 188.437 401.095 188.645 400.513C188.858 399.93 188.965 399.289 188.965 398.588C188.965 397.892 188.858 397.253 188.645 396.67C188.437 396.083 188.115 395.612 187.68 395.257C187.244 394.902 186.695 394.724 186.032 394.724C185.364 394.724 184.81 394.902 184.37 395.257C183.934 395.612 183.61 396.083 183.397 396.67C183.189 397.253 183.084 397.892 183.084 398.588C183.084 399.289 183.189 399.93 183.397 400.513C183.61 401.095 183.934 401.562 184.37 401.912C184.81 402.262 185.364 402.438 186.032 402.438ZM201.655 395.754L199.73 396.095C199.65 395.849 199.522 395.615 199.347 395.392C199.176 395.17 198.944 394.987 198.651 394.845C198.357 394.703 197.99 394.632 197.55 394.632C196.949 394.632 196.447 394.767 196.044 395.037C195.642 395.302 195.441 395.645 195.441 396.067C195.441 396.431 195.575 396.725 195.845 396.947C196.115 397.17 196.551 397.352 197.152 397.494L198.885 397.892C199.889 398.124 200.637 398.482 201.129 398.964C201.622 399.447 201.868 400.075 201.868 400.847C201.868 401.5 201.679 402.082 201.3 402.594C200.926 403.1 200.403 403.498 199.73 403.787C199.063 404.076 198.289 404.22 197.408 404.22C196.186 404.22 195.19 403.96 194.418 403.439C193.646 402.913 193.173 402.168 192.997 401.202L195.05 400.889C195.178 401.424 195.441 401.829 195.838 402.104C196.236 402.374 196.754 402.509 197.394 402.509C198.09 402.509 198.646 402.364 199.063 402.075C199.479 401.782 199.688 401.424 199.688 401.003C199.688 400.662 199.56 400.375 199.304 400.143C199.053 399.911 198.667 399.736 198.146 399.618L196.3 399.213C195.282 398.981 194.529 398.612 194.041 398.105C193.558 397.598 193.317 396.957 193.317 396.18C193.317 395.536 193.497 394.973 193.857 394.49C194.217 394.007 194.714 393.631 195.348 393.361C195.983 393.086 196.709 392.949 197.529 392.949C198.708 392.949 199.636 393.205 200.313 393.716C200.99 394.223 201.437 394.902 201.655 395.754ZM209.295 393.091V394.795H203.336V393.091H209.295ZM204.934 390.477H207.058V400.797C207.058 401.209 207.12 401.519 207.243 401.727C207.366 401.931 207.524 402.071 207.719 402.146C207.917 402.217 208.133 402.253 208.365 402.253C208.535 402.253 208.684 402.241 208.812 402.217C208.94 402.194 209.04 402.175 209.111 402.161L209.494 403.915C209.371 403.962 209.196 404.009 208.969 404.057C208.741 404.109 208.457 404.137 208.116 404.142C207.558 404.152 207.037 404.052 206.554 403.844C206.071 403.635 205.68 403.313 205.382 402.878C205.084 402.442 204.934 401.895 204.934 401.237V390.477ZM214.002 389.455V404H211.879V389.455H214.002ZM216.859 404V393.091H218.983V404H216.859ZM217.932 391.408C217.562 391.408 217.245 391.285 216.98 391.038C216.72 390.787 216.589 390.489 216.589 390.143C216.589 389.793 216.72 389.495 216.98 389.249C217.245 388.998 217.562 388.872 217.932 388.872C218.301 388.872 218.616 388.998 218.876 389.249C219.141 389.495 219.274 389.793 219.274 390.143C219.274 390.489 219.141 390.787 218.876 391.038C218.616 391.285 218.301 391.408 217.932 391.408ZM223.963 397.523V404H221.84V393.091H223.878V394.866H224.013C224.264 394.289 224.657 393.825 225.192 393.474C225.732 393.124 226.411 392.949 227.23 392.949C227.974 392.949 228.625 393.105 229.183 393.418C229.742 393.725 230.175 394.185 230.483 394.795C230.791 395.406 230.945 396.161 230.945 397.061V404H228.821V397.317C228.821 396.526 228.615 395.908 228.203 395.463C227.791 395.013 227.226 394.788 226.506 394.788C226.013 394.788 225.575 394.895 225.192 395.108C224.813 395.321 224.512 395.634 224.29 396.045C224.072 396.453 223.963 396.945 223.963 397.523ZM236.968 404.241C236.276 404.241 235.651 404.114 235.093 403.858C234.534 403.598 234.091 403.221 233.764 402.729C233.442 402.236 233.281 401.633 233.281 400.918C233.281 400.302 233.4 399.795 233.637 399.398C233.873 399 234.193 398.685 234.595 398.453C234.998 398.221 235.448 398.046 235.945 397.928C236.442 397.809 236.949 397.719 237.465 397.658C238.118 397.582 238.648 397.52 239.056 397.473C239.463 397.421 239.759 397.338 239.943 397.224C240.128 397.111 240.22 396.926 240.22 396.67V396.621C240.22 396 240.045 395.52 239.695 395.179C239.349 394.838 238.833 394.668 238.146 394.668C237.432 394.668 236.868 394.826 236.456 395.143C236.049 395.456 235.767 395.804 235.611 396.188L233.615 395.733C233.852 395.07 234.198 394.535 234.652 394.128C235.111 393.716 235.639 393.418 236.236 393.233C236.833 393.044 237.46 392.949 238.118 392.949C238.554 392.949 239.015 393.001 239.503 393.105C239.995 393.205 240.455 393.389 240.881 393.659C241.312 393.929 241.664 394.315 241.939 394.817C242.214 395.314 242.351 395.96 242.351 396.756V404H240.277V402.509H240.192C240.055 402.783 239.849 403.053 239.574 403.318C239.299 403.583 238.947 403.804 238.516 403.979C238.085 404.154 237.569 404.241 236.968 404.241ZM237.429 402.537C238.016 402.537 238.518 402.421 238.935 402.189C239.356 401.957 239.676 401.654 239.894 401.28C240.116 400.901 240.227 400.496 240.227 400.065V398.659C240.152 398.735 240.005 398.806 239.787 398.872C239.574 398.934 239.33 398.988 239.056 399.036C238.781 399.078 238.513 399.118 238.253 399.156C237.993 399.189 237.775 399.218 237.6 399.241C237.188 399.294 236.811 399.381 236.47 399.504C236.134 399.627 235.864 399.805 235.661 400.037C235.462 400.264 235.362 400.567 235.362 400.946C235.362 401.472 235.557 401.869 235.945 402.139C236.333 402.404 236.828 402.537 237.429 402.537Z" fill="black"/>
<path d="M164.629 455V440.455H166.824V447.401H167.001L173.102 440.455H175.865L169.999 447.003L175.886 455H173.244L168.543 448.501L166.824 450.476V455H164.629ZM186.272 444.091L182.316 455H180.043L176.08 444.091H178.36L181.123 452.486H181.236L183.992 444.091H186.272ZM192.598 455.22C191.523 455.22 190.598 454.991 189.821 454.531C189.049 454.067 188.453 453.416 188.031 452.578C187.615 451.735 187.406 450.748 187.406 449.616C187.406 448.499 187.615 447.514 188.031 446.662C188.453 445.81 189.04 445.144 189.793 444.666C190.55 444.188 191.436 443.949 192.449 443.949C193.064 443.949 193.661 444.051 194.239 444.254C194.816 444.458 195.335 444.777 195.794 445.213C196.253 445.649 196.616 446.214 196.881 446.911C197.146 447.602 197.278 448.442 197.278 449.432V450.185H188.607V448.594H195.197C195.197 448.035 195.084 447.54 194.857 447.109C194.629 446.674 194.31 446.33 193.898 446.08C193.491 445.829 193.012 445.703 192.463 445.703C191.866 445.703 191.346 445.85 190.901 446.143C190.46 446.432 190.119 446.811 189.878 447.28C189.641 447.744 189.523 448.248 189.523 448.793V450.036C189.523 450.765 189.651 451.385 189.906 451.896C190.167 452.408 190.529 452.798 190.993 453.068C191.457 453.333 191.999 453.466 192.619 453.466C193.022 453.466 193.389 453.409 193.72 453.295C194.052 453.177 194.338 453.002 194.58 452.77C194.821 452.538 195.006 452.251 195.134 451.911L197.143 452.273C196.982 452.865 196.694 453.383 196.277 453.828C195.865 454.268 195.347 454.612 194.722 454.858C194.101 455.099 193.393 455.22 192.598 455.22ZM190.908 439.666L192.371 441.57L193.827 439.666H195.751V439.773L193.251 442.784H191.483L188.99 439.773V439.666H190.908ZM204.727 444.091V445.795H198.768V444.091H204.727ZM200.366 441.477H202.49V451.797C202.49 452.209 202.551 452.519 202.674 452.727C202.797 452.931 202.956 453.071 203.15 453.146C203.349 453.217 203.565 453.253 203.797 453.253C203.967 453.253 204.116 453.241 204.244 453.217C204.372 453.194 204.471 453.175 204.542 453.161L204.926 454.915C204.803 454.962 204.627 455.009 204.4 455.057C204.173 455.109 203.889 455.137 203.548 455.142C202.989 455.152 202.468 455.052 201.985 454.844C201.502 454.635 201.112 454.313 200.814 453.878C200.515 453.442 200.366 452.895 200.366 452.237V441.477ZM207.076 455V444.091H209.2V455H207.076ZM208.148 442.408C207.779 442.408 207.462 442.285 207.197 442.038C206.936 441.787 206.806 441.489 206.806 441.143C206.806 440.793 206.936 440.495 207.197 440.249C207.462 439.998 207.779 439.872 208.148 439.872C208.518 439.872 208.833 439.998 209.093 440.249C209.358 440.495 209.491 440.793 209.491 441.143C209.491 441.489 209.358 441.787 209.093 442.038C208.833 442.285 208.518 442.408 208.148 442.408ZM214.18 448.523V455H212.056V444.091H214.095V445.866H214.23C214.481 445.289 214.874 444.825 215.409 444.474C215.949 444.124 216.628 443.949 217.447 443.949C218.19 443.949 218.842 444.105 219.4 444.418C219.959 444.725 220.392 445.185 220.7 445.795C221.008 446.406 221.162 447.161 221.162 448.061V455H219.038V448.317C219.038 447.526 218.832 446.908 218.42 446.463C218.008 446.013 217.442 445.788 216.723 445.788C216.23 445.788 215.792 445.895 215.409 446.108C215.03 446.321 214.729 446.634 214.507 447.045C214.289 447.453 214.18 447.945 214.18 448.523ZM227.184 455.241C226.493 455.241 225.868 455.114 225.309 454.858C224.751 454.598 224.308 454.221 223.981 453.729C223.659 453.236 223.498 452.633 223.498 451.918C223.498 451.302 223.617 450.795 223.853 450.398C224.09 450 224.41 449.685 224.812 449.453C225.215 449.221 225.664 449.046 226.162 448.928C226.659 448.809 227.165 448.719 227.681 448.658C228.335 448.582 228.865 448.52 229.272 448.473C229.68 448.421 229.975 448.338 230.16 448.224C230.345 448.111 230.437 447.926 230.437 447.67V447.621C230.437 447 230.262 446.52 229.912 446.179C229.566 445.838 229.05 445.668 228.363 445.668C227.648 445.668 227.085 445.826 226.673 446.143C226.266 446.456 225.984 446.804 225.828 447.188L223.832 446.733C224.069 446.07 224.414 445.535 224.869 445.128C225.328 444.716 225.856 444.418 226.453 444.233C227.049 444.044 227.677 443.949 228.335 443.949C228.77 443.949 229.232 444.001 229.72 444.105C230.212 444.205 230.672 444.389 231.098 444.659C231.529 444.929 231.881 445.315 232.156 445.817C232.431 446.314 232.568 446.96 232.568 447.756V455H230.494V453.509H230.409C230.271 453.783 230.065 454.053 229.791 454.318C229.516 454.583 229.163 454.804 228.733 454.979C228.302 455.154 227.786 455.241 227.184 455.241ZM227.646 453.537C228.233 453.537 228.735 453.421 229.152 453.189C229.573 452.957 229.893 452.654 230.11 452.28C230.333 451.901 230.444 451.496 230.444 451.065V449.659C230.368 449.735 230.222 449.806 230.004 449.872C229.791 449.934 229.547 449.988 229.272 450.036C228.998 450.078 228.73 450.118 228.47 450.156C228.209 450.189 227.992 450.218 227.816 450.241C227.404 450.294 227.028 450.381 226.687 450.504C226.351 450.627 226.081 450.805 225.877 451.037C225.679 451.264 225.579 451.567 225.579 451.946C225.579 452.472 225.773 452.869 226.162 453.139C226.55 453.404 227.045 453.537 227.646 453.537Z" fill="black"/>
</g>
<defs>
<filter id="filter0_d_4_228" x="0" y="0" width="398" height="852" filterUnits="userSpaceOnUse" color-interpolation-filters="sRGB">
<feFlood flood-opacity="0" result="BackgroundImageFix"/>
<feColorMatrix in="SourceAlpha" type="matrix" values="0 0 0 0 0 0 0 0 0 0 0 0 0 0 0 0 0 0 127 0" result="hardAlpha"/>
<feOffset dy="4"/>
<feGaussianBlur stdDeviation="2"/>
<feComposite in2="hardAlpha" operator="out"/>
<feColorMatrix type="matrix" values="0 0 0 0 0 0 0 0 0 0 0 0 0 0 0 0 0 0 0.25 0"/>
<feBlend mode="normal" in2="BackgroundImageFix" result="effect1_dropShadow_4_228"/>
<feBlend mode="normal" in="SourceGraphic" in2="effect1_dropShadow_4_228" result="shape"/>
</filter>
<filter id="filter1_d_4_228" x="134.253" y="584.815" width="130.446" height="292.974" filterUnits="userSpaceOnUse" color-interpolation-filters="sRGB">
<feFlood flood-opacity="0" result="BackgroundImageFix"/>
<feColorMatrix in="SourceAlpha" type="matrix" values="0 0 0 0 0 0 0 0 0 0 0 0 0 0 0 0 0 0 127 0" result="hardAlpha"/>
<feOffset dy="11.5622"/>
<feGaussianBlur stdDeviation="5.78112"/>
<feComposite in2="hardAlpha" operator="out"/>
<feColorMatrix type="matrix" values="0 0 0 0 0 0 0 0 0 0 0 0 0 0 0 0 0 0 0.25 0"/>
<feBlend mode="normal" in2="BackgroundImageFix" result="effect1_dropShadow_4_228"/>
<feBlend mode="normal" in="SourceGraphic" in2="effect1_dropShadow_4_228" result="shape"/>
</filter>
<clipPath id="clip0_4_228">
<rect width="390" height="844" fill="white" transform="translate(4)"/>
</clipPath>
</defs>
</svg>
